<svg width="392" height="75" viewBox="0 0 392 75" fill="none" xmlns="http://www.w3.org/2000/svg">
<path fill-rule="evenodd" clip-rule="evenodd" d="M294.957 1.32399C292.81 2.09699 292.05 4.96799 293.58 6.52899C294.695 7.66699 293.849 7.57499 304.079 7.67199C315.278 7.77799 315.432 7.79999 317.833 9.60599C320.658 11.732 322.265 16.372 321.107 19.058C320.637 20.148 320.297 20.804 319.799 21.583C319.357 22.276 317.522 23.931 316.817 24.273C314.631 25.335 315.602 25.246 305.75 25.29C295.249 25.336 294.781 25.385 293.6 26.567L292.917 27.25V28.667C292.917 30.226 293.137 30.706 294.226 31.524L294.75 31.917L305.333 32.017C316.359 32.121 316.968 32.16 318.927 32.891C320.818 33.597 323.007 35.379 323.94 36.973C324.19 37.4 324.494 37.849 324.614 37.97C324.735 38.091 324.833 38.326 324.833 38.491C324.833 38.657 324.94 38.881 325.07 38.989C325.201 39.097 325.359 39.5 325.422 39.885C325.486 40.269 325.62 40.685 325.721 40.81C326.024 41.185 325.943 44.438 325.603 45.5C324.903 47.69 323.205 50.333 321.801 51.418C320.968 52.061 319.248 53 318.902 53C318.766 53 318.489 53.107 318.286 53.239C317.571 53.701 314.729 53.833 305.382 53.84C294.964 53.848 293.5 54.003 293.5 55.094C293.5 55.217 293.369 55.39 293.208 55.48C292.965 55.616 292.917 55.887 292.917 57.117C292.917 58.806 293.136 59.235 294.384 59.992L295.083 60.417L306.25 60.404C313.912 60.396 317.652 60.333 318.167 60.205C319.977 59.753 320.446 59.618 320.917 59.41C321.192 59.289 321.601 59.137 321.826 59.073C322.05 59.009 322.337 58.853 322.462 58.728C322.588 58.603 322.805 58.5 322.944 58.5C323.083 58.5 323.388 58.35 323.621 58.167C323.854 57.983 324.141 57.833 324.259 57.833C324.376 57.833 324.497 57.777 324.528 57.708C324.558 57.64 324.92 57.358 325.332 57.083C326.235 56.48 327.767 54.998 328.432 54.083C328.901 53.438 329.012 53.295 329.461 52.76C329.577 52.622 329.745 52.338 329.835 52.129C330.019 51.705 330.276 51.279 330.708 50.688C330.869 50.468 331 50.158 331 49.998C331 49.838 331.112 49.614 331.25 49.5C331.387 49.386 331.5 49.131 331.5 48.933C331.5 48.736 331.613 48.412 331.752 48.215C331.89 48.017 332.049 47.494 332.106 47.053C332.162 46.611 332.311 45.84 332.438 45.34C332.732 44.172 332.729 42.473 332.432 40.951C332.302 40.291 332.153 39.441 332.1 39.064C332.047 38.686 331.89 38.161 331.753 37.897C331.615 37.633 331.502 37.309 331.501 37.178C331.5 36.967 331.062 35.897 330.672 35.155C330.596 35.011 330.334 34.509 330.088 34.04C329.843 33.571 329.536 33.099 329.405 32.99C329.274 32.881 329.167 32.72 329.167 32.632C329.167 32.481 328.645 31.871 327.65 30.858C327.068 30.264 326.131 29.491 324.875 28.567C323.764 27.749 323.642 27.457 324.144 26.814C325.339 25.287 326.453 23.409 327.247 21.583C328.272 19.226 328.187 13.356 327.095 11.083C326.963 10.808 326.812 10.471 326.76 10.333C326.28 9.06299 323.978 5.92999 322.834 4.98799C322.452 4.67399 322.008 4.30399 321.847 4.16699C321.408 3.79199 320.976 3.52099 320.386 3.24899C320.095 3.11499 319.809 2.92899 319.752 2.83599C319.694 2.74299 319.511 2.66699 319.344 2.66699C319.177 2.66699 318.949 2.55599 318.837 2.42099C318.725 2.28599 318.359 2.12599 318.025 2.06599C317.69 2.00499 317.267 1.87699 317.083 1.77899C315.75 1.07199 296.744 0.680992 294.957 1.32399ZM363.592 1.15199C363.541 1.23599 363.18 1.35699 362.791 1.42199C362.094 1.53799 360.833 2.57399 360.833 3.02999C360.833 3.20399 360.418 4.17899 359.901 5.22199C359.772 5.48099 359.667 5.77299 359.667 5.86999C359.667 6.03799 359.246 7.02399 358.734 8.05499C358.605 8.31499 358.5 8.60599 358.5 8.70399C358.5 8.87099 358.079 9.85799 357.567 10.889C357.439 11.148 357.333 11.44 357.333 11.537C357.333 11.704 356.912 12.691 356.401 13.722C356.272 13.981 356.167 14.273 356.167 14.37C356.167 14.538 355.746 15.524 355.234 16.555C355.105 16.815 355 17.106 355 17.204C355 17.301 354.842 17.726 354.649 18.148C354.27 18.978 354.083 19.416 353.506 20.833C353.3 21.337 353.038 21.975 352.922 22.25C352.807 22.525 352.544 23.162 352.339 23.667C351.742 25.132 351.569 25.536 351.19 26.352C350.994 26.774 350.833 27.213 350.833 27.326C350.833 27.439 350.734 27.731 350.612 27.974C350.491 28.218 350.266 28.666 350.112 28.972C349.959 29.277 349.833 29.61 349.833 29.711C349.833 29.895 349.364 31 348.909 31.889C348.775 32.148 348.667 32.44 348.667 32.537C348.667 32.704 348.246 33.691 347.734 34.722C347.605 34.981 347.5 35.282 347.5 35.391C347.5 35.499 347.35 35.868 347.167 36.21C346.983 36.552 346.833 36.973 346.833 37.146C346.833 37.318 346.721 37.553 346.583 37.667C346.446 37.781 346.331 37.996 346.328 38.145C346.325 38.295 346.177 38.717 346 39.083C345.823 39.45 345.675 39.872 345.672 40.021C345.669 40.17 345.554 40.386 345.417 40.5C345.279 40.614 345.164 40.83 345.161 40.979C345.158 41.128 345.01 41.55 344.833 41.917C344.656 42.283 344.509 42.705 344.506 42.855C344.503 43.004 344.387 43.219 344.25 43.333C344.113 43.447 343.997 43.663 343.994 43.812C343.991 43.961 343.844 44.383 343.667 44.75C343.49 45.117 343.342 45.504 343.339 45.611C343.336 45.719 343.222 46.019 343.086 46.278C342.711 46.992 342.167 48.294 342.167 48.477C342.167 48.567 342.061 48.852 341.933 49.111C341.362 50.262 341 51.139 341 51.373C341 51.512 340.887 51.719 340.75 51.833C340.613 51.947 340.5 52.182 340.5 52.354C340.5 52.527 340.35 52.948 340.167 53.29C339.983 53.632 339.833 54.035 339.833 54.185C339.833 54.336 339.721 54.553 339.583 54.667C339.446 54.781 339.333 55.022 339.333 55.204C339.333 55.385 339.213 55.787 339.065 56.099C338.276 57.762 339.729 60.018 341.796 60.339C343.472 60.599 368.764 60.485 369.37 60.214C370.375 59.766 371.125 58.741 371.45 57.373C371.671 56.442 370.258 54.383 369.183 54.07C368.945 54 364.063 53.9 358.333 53.847L347.917 53.75L347.867 53.152C347.834 52.766 347.908 52.479 348.075 52.34C348.217 52.222 348.333 51.985 348.333 51.812C348.333 51.64 348.483 51.219 348.667 50.877C348.85 50.535 349 50.166 349 50.058C349 49.949 349.105 49.648 349.234 49.389C349.746 48.358 350.167 47.371 350.167 47.204C350.167 47.106 350.272 46.815 350.401 46.555C350.912 45.524 351.333 44.538 351.333 44.37C351.333 44.273 351.446 43.963 351.583 43.68C351.721 43.398 351.946 42.936 352.083 42.653C352.221 42.371 352.333 42.06 352.333 41.963C352.333 41.796 352.754 40.809 353.266 39.778C353.395 39.519 353.5 39.227 353.5 39.13C353.5 38.962 353.921 37.976 354.433 36.945C354.561 36.685 354.667 36.394 354.667 36.296C354.667 36.129 355.088 35.142 355.599 34.111C355.728 33.852 355.833 33.56 355.833 33.463C355.833 33.296 356.254 32.309 356.766 31.278C356.895 31.019 357 30.727 357 30.63C357 30.462 357.421 29.476 357.933 28.445C358.061 28.185 358.167 27.894 358.167 27.796C358.167 27.629 358.588 26.642 359.099 25.611C359.228 25.352 359.333 25.06 359.333 24.963C359.333 24.796 359.754 23.809 360.266 22.778C360.395 22.519 360.5 22.227 360.5 22.13C360.5 22.033 360.658 21.607 360.851 21.185C361.045 20.762 361.304 20.192 361.429 19.917C361.553 19.642 361.703 19.21 361.762 18.958C361.821 18.706 361.936 18.5 362.018 18.5C362.1 18.5 362.167 18.366 362.167 18.202C362.167 18.038 362.317 17.61 362.5 17.25C362.683 16.89 362.833 16.467 362.833 16.31C362.833 16.153 362.946 15.911 363.083 15.774C363.221 15.636 363.333 15.422 363.333 15.297C363.333 15.172 363.483 14.776 363.667 14.417C363.85 14.057 364 13.639 364 13.487C364 12.743 365.068 12.023 365.28 12.625C365.336 12.785 365.521 13.231 365.691 13.616C365.861 14 366 14.388 366 14.477C366 14.567 366.111 14.852 366.248 15.111C366.623 15.825 367.167 17.127 367.167 17.311C367.167 17.4 367.278 17.685 367.414 17.945C367.789 18.659 368.333 19.961 368.333 20.144C368.333 20.233 368.445 20.519 368.581 20.778C368.956 21.492 369.5 22.794 369.5 22.977C369.5 23.067 369.605 23.352 369.734 23.611C370.246 24.642 370.667 25.629 370.667 25.796C370.667 25.894 370.772 26.185 370.901 26.445C371.472 27.595 371.833 28.472 371.833 28.706C371.833 28.845 371.946 29.053 372.083 29.167C372.221 29.281 372.333 29.515 372.333 29.688C372.333 29.86 372.483 30.281 372.667 30.623C372.85 30.965 373 31.368 373 31.519C373 31.669 373.113 31.886 373.25 32C373.387 32.114 373.5 32.349 373.5 32.521C373.5 32.693 373.65 33.114 373.833 33.456C374.017 33.799 374.167 34.202 374.167 34.352C374.167 34.503 374.279 34.719 374.417 34.833C374.554 34.947 374.667 35.158 374.667 35.301C374.667 35.554 375.116 36.63 375.596 37.526C375.727 37.769 375.833 38.064 375.833 38.181C375.833 38.299 375.991 38.737 376.183 39.156C376.766 40.426 376.96 40.878 377.331 41.833C377.526 42.337 377.789 42.975 377.914 43.25C378.039 43.525 378.302 44.163 378.497 44.667C378.869 45.624 379.215 46.423 379.604 47.222C379.73 47.481 379.833 47.782 379.833 47.891C379.833 47.999 379.983 48.368 380.167 48.71C380.35 49.052 380.5 49.473 380.5 49.646C380.5 49.818 380.613 50.053 380.75 50.167C380.887 50.281 381 50.497 381 50.648C381 50.798 381.15 51.201 381.333 51.544C381.517 51.886 381.667 52.307 381.667 52.479C381.667 52.651 381.779 52.886 381.917 53C382.054 53.114 382.169 53.33 382.172 53.479C382.175 53.628 382.323 54.05 382.5 54.417C382.677 54.783 382.825 55.205 382.828 55.355C382.831 55.504 382.946 55.719 383.083 55.833C383.221 55.947 383.336 56.163 383.339 56.312C383.342 56.461 383.49 56.883 383.667 57.25C383.844 57.617 383.991 58.048 383.994 58.208C383.997 58.369 384.063 58.5 384.14 58.5C384.217 58.5 384.364 58.685 384.467 58.911C385.096 60.291 388.014 60.899 389.226 59.902C390.61 58.764 391.205 56.609 390.422 55.574C390.287 55.396 390.175 55.146 390.172 55.018C390.167 54.802 389.782 53.881 389.234 52.778C389.105 52.519 389 52.227 389 52.13C389 51.962 388.579 50.976 388.067 49.945C387.939 49.685 387.833 49.384 387.833 49.276C387.833 49.167 387.683 48.799 387.5 48.456C387.317 48.114 387.167 47.728 387.167 47.597C387.167 47.467 387.055 47.148 386.919 46.889C386.544 46.175 386 44.873 386 44.689C386 44.6 385.895 44.315 385.766 44.055C385.254 43.024 384.833 42.038 384.833 41.87C384.833 41.773 384.728 41.481 384.599 41.222C384.088 40.191 383.667 39.204 383.667 39.037C383.667 38.94 383.561 38.648 383.433 38.389C382.921 37.358 382.5 36.371 382.5 36.204C382.5 36.106 382.395 35.815 382.266 35.555C381.754 34.524 381.333 33.538 381.333 33.37C381.333 33.273 381.228 32.981 381.099 32.722C380.588 31.691 380.167 30.704 380.167 30.537C380.167 30.44 380.059 30.148 379.927 29.889C379.795 29.629 379.529 29.004 379.334 28.5C379.139 27.996 378.878 27.358 378.753 27.083C378.628 26.808 378.365 26.171 378.169 25.667C377.974 25.162 377.71 24.525 377.583 24.25C377.457 23.975 377.183 23.3 376.975 22.75C376.766 22.2 376.499 21.602 376.381 21.421C376.263 21.24 376.167 20.952 376.167 20.78C376.167 20.609 376.057 20.269 375.924 20.026C375.557 19.359 375 18.042 375 17.842C375 17.745 374.85 17.386 374.667 17.044C374.483 16.701 374.333 16.289 374.333 16.127C374.333 15.966 374.262 15.833 374.174 15.833C374.087 15.833 373.966 15.57 373.905 15.248C373.845 14.926 373.735 14.625 373.66 14.579C373.585 14.533 373.438 14.215 373.333 13.873C373.141 13.249 372.813 12.471 372.391 11.641C372.268 11.398 372.167 11.106 372.167 10.993C372.167 10.796 371.719 9.75199 371.229 8.80799C371.103 8.56399 371 8.27299 371 8.15899C371 7.96599 370.605 7.02699 370.067 5.94499C369.939 5.68499 369.833 5.39399 369.833 5.29599C369.833 5.13299 369.501 4.36699 368.851 3.03299C368.163 1.62099 364.182 0.196992 363.592 1.15199ZM242.051 1.44299C241.081 1.58299 240.211 2.66199 240.084 3.88199C240.025 4.45099 240.004 14.367 240.038 25.917L240.098 46.917L240.484 48C240.845 49.012 241.042 49.496 241.601 50.75C241.724 51.025 241.905 51.438 242.003 51.667C242.219 52.172 242.366 52.417 243.366 53.934C244.287 55.331 245.722 56.849 247 57.778C248.878 59.142 249.668 59.667 249.848 59.667C249.949 59.667 250.231 59.773 250.474 59.903C252.878 61.19 255.721 61.296 256.737 60.137L257.333 59.457V57.819V56.181L256.708 55.524C256.315 55.112 255.823 54.798 255.382 54.679C254.996 54.576 254.636 54.418 254.581 54.329C254.525 54.24 254.334 54.167 254.156 54.167C253.978 54.167 253.552 54.017 253.21 53.833C252.868 53.65 252.501 53.5 252.395 53.5C252.289 53.5 252.159 53.387 252.106 53.25C252.054 53.112 251.899 53 251.763 53C251.444 53 248.963 50.572 248.613 49.917C248.466 49.642 248.231 49.178 248.092 48.886C247.952 48.595 247.762 48.309 247.669 48.252C247.576 48.194 247.5 47.981 247.5 47.777C247.5 47.574 247.386 47.245 247.246 47.046C246.671 46.225 246.313 22.754 246.867 22.2C247.011 22.056 248.147 22 250.929 22C256.301 22 257.315 21.538 257.324 19.083C257.333 16.541 256.189 16.013 250.643 16.005C247.359 16.001 246.856 15.966 246.768 15.736C246.712 15.591 246.667 13.016 246.667 10.014C246.667 1.67599 246.217 0.840992 242.051 1.44299ZM227.333 15.445C227.196 15.492 226.847 15.636 226.558 15.765C226.269 15.894 225.819 16.002 225.558 16.005C225.297 16.008 224.938 16.121 224.76 16.255C224.582 16.39 224.293 16.5 224.119 16.5C223.944 16.5 223.602 16.609 223.359 16.742C223.116 16.876 222.485 17.181 221.958 17.421C221.431 17.661 221 17.918 221 17.992C221 18.066 220.775 18.219 220.5 18.333C220.225 18.447 220 18.606 220 18.687C220 18.767 219.921 18.833 219.824 18.833C219.278 18.833 215.716 22.07 214.918 23.292C214.664 23.681 214.391 24 214.311 24C214.232 24 214.167 24.076 214.167 24.168C214.167 24.261 213.921 24.692 213.621 25.127C213.321 25.561 212.984 26.104 212.872 26.333C212.761 26.563 212.594 26.881 212.501 27.042C212.409 27.202 212.258 27.465 212.166 27.625C212.073 27.785 211.957 28.029 211.907 28.167C211.858 28.304 211.671 28.694 211.492 29.033C211.313 29.372 211.164 29.785 211.161 29.95C211.158 30.115 211.046 30.396 210.911 30.574C210.777 30.751 210.666 31.089 210.666 31.324C210.665 31.558 210.552 31.966 210.414 32.23C209.779 33.448 209.283 56.043 209.85 57.917C210.099 58.738 210.681 59.664 210.95 59.666C211.06 59.666 211.224 59.798 211.313 59.958C211.846 60.911 214.939 60.159 215.796 58.868L216.167 58.31L216.171 47.447C216.173 40.383 216.236 36.35 216.35 35.917C216.447 35.55 216.592 34.833 216.673 34.324C216.754 33.814 216.935 33.177 217.076 32.907C217.216 32.637 217.332 32.329 217.332 32.221C217.334 31.927 218.682 29.38 219.522 28.083C220.264 26.939 222.969 24.333 223.415 24.333C223.488 24.333 223.63 24.227 223.732 24.096C223.954 23.812 226.063 22.667 226.368 22.666C226.486 22.665 226.8 22.552 227.064 22.414C227.328 22.276 227.853 22.118 228.23 22.062C228.608 22.006 229.083 21.857 229.286 21.73C229.489 21.604 229.804 21.5 229.987 21.5C230.621 21.5 231.638 20.317 231.849 19.335C232.046 18.412 231.818 16.667 231.499 16.667C231.42 16.667 231.308 16.517 231.25 16.333C231.192 16.15 231.067 16 230.973 16C230.879 16 230.612 15.85 230.379 15.667C229.964 15.341 228.049 15.201 227.333 15.445Z" fill="#7F32EC"/>
<path fill-rule="evenodd" clip-rule="evenodd" d="M3.25 1.303C2.388 1.652 1.545 2.547 1.332 3.34C1.22 3.754 1.178 13.194 1.206 31.192L1.25 58.417L1.662 59.005C3.195 61.192 6.422 60.934 7.708 58.52C8.183 57.629 8.158 3.96 7.682 3.035C6.811 1.342 4.949 0.613999 3.25 1.303ZM37.74 15.068C37.367 15.184 36.533 15.329 35.885 15.389C35.238 15.449 34.492 15.611 34.229 15.748C33.965 15.886 33.553 15.998 33.312 15.999C33.071 16 32.781 16.112 32.667 16.25C32.553 16.387 32.337 16.505 32.188 16.511C32.039 16.517 31.542 16.742 31.083 17.01C30.625 17.279 30.063 17.591 29.833 17.704C29.604 17.817 29.379 17.952 29.333 18.002C29.287 18.053 28.837 18.365 28.333 18.696C27.493 19.247 25.833 20.725 25.833 20.921C25.833 21.007 24.368 22.849 24.18 23C24.123 23.046 23.984 23.271 23.87 23.5C23.756 23.729 23.514 24.142 23.332 24.417C23.15 24.692 22.918 25.123 22.818 25.375C22.717 25.627 22.566 25.833 22.484 25.833C22.401 25.833 22.333 25.928 22.333 26.044C22.333 26.16 22.183 26.535 22 26.877C21.817 27.219 21.667 27.632 21.667 27.796C21.667 27.959 21.561 28.243 21.432 28.427C21.303 28.611 21.142 29.133 21.074 29.587C21.006 30.04 20.849 30.654 20.725 30.95C20.542 31.388 20.5 33.973 20.5 44.656C20.5 59.571 20.406 58.536 21.87 59.696C22.671 60.33 25.053 60.496 25.364 59.939C25.448 59.789 25.588 59.667 25.675 59.667C25.93 59.667 26.388 59.114 26.792 58.321L27.168 57.583L27.167 44.49C27.167 33.235 27.201 31.352 27.411 31.074C27.546 30.896 27.658 30.614 27.661 30.448C27.67 29.948 28.762 27.861 29.75 26.46C30.394 25.544 32.084 23.882 32.506 23.748C32.686 23.691 32.833 23.582 32.833 23.505C32.833 23.429 33.04 23.281 33.292 23.177C33.544 23.073 34.162 22.77 34.667 22.505C35.171 22.239 35.808 22.014 36.083 22.005C36.358 21.997 36.729 21.879 36.907 21.745C37.374 21.392 41.793 21.392 42.26 21.745C42.438 21.879 42.797 21.992 43.058 21.995C43.318 21.998 43.731 22.112 43.974 22.249C44.218 22.386 44.604 22.574 44.833 22.668C45.063 22.762 45.475 22.985 45.75 23.164C46.025 23.343 46.456 23.607 46.708 23.749C46.96 23.892 47.167 24.082 47.167 24.171C47.167 24.26 47.238 24.333 47.326 24.333C47.478 24.333 48.333 25.11 48.333 25.248C48.333 25.285 48.596 25.6 48.917 25.949C49.238 26.298 49.543 26.715 49.595 26.875C49.647 27.035 49.759 27.167 49.845 27.167C49.93 27.167 50 27.268 50 27.391C50 27.515 50.15 27.789 50.333 28C50.517 28.211 50.667 28.514 50.667 28.672C50.667 28.83 50.774 29.049 50.906 29.158C51.038 29.267 51.197 29.594 51.261 29.884C51.325 30.174 51.498 30.597 51.647 30.823C51.889 31.192 51.921 32.576 51.96 44.159C51.989 53.04 52.061 57.318 52.19 57.833C52.389 58.629 52.98 59.664 53.237 59.666C53.321 59.666 53.53 59.793 53.7 59.947C54.702 60.854 57.258 60.143 58.088 58.727L58.5 58.024L58.501 45.22C58.502 34.188 58.537 32.351 58.751 31.939C58.888 31.677 59 31.242 59 30.972C59 30.703 59.163 30.168 59.362 29.783C59.561 29.398 59.781 28.971 59.851 28.833C60.664 27.242 60.94 26.782 61.12 26.713C61.238 26.668 61.333 26.53 61.333 26.407C61.333 26.284 61.429 26.123 61.546 26.05C61.662 25.977 61.889 25.711 62.048 25.46C62.299 25.067 62.813 24.621 64.409 23.413C64.588 23.278 64.861 23.167 65.016 23.167C65.171 23.167 65.341 23.054 65.394 22.917C65.446 22.779 65.587 22.667 65.706 22.667C65.824 22.667 66.201 22.517 66.544 22.333C66.886 22.15 67.372 21.998 67.624 21.995C67.877 21.992 68.229 21.879 68.407 21.745C68.863 21.4 73.228 21.404 73.833 21.75C74.063 21.881 74.416 21.991 74.62 21.994C74.951 21.999 75.998 22.436 76.667 22.847C76.804 22.932 77.087 23.075 77.296 23.165C77.505 23.255 77.767 23.404 77.879 23.496C77.992 23.588 78.464 23.956 78.929 24.313C79.801 24.982 80.833 26.158 80.833 26.482C80.833 26.584 80.895 26.667 80.97 26.667C81.152 26.667 82 27.969 82 28.247C82 28.367 82.112 28.508 82.25 28.56C82.388 28.613 82.5 28.771 82.5 28.912C82.5 29.053 82.65 29.448 82.833 29.79C83.017 30.132 83.167 30.65 83.167 30.942C83.167 31.234 83.26 31.503 83.375 31.542C83.538 31.596 83.601 34.483 83.667 44.931L83.75 58.25L84.141 58.875C84.357 59.219 84.601 59.5 84.683 59.5C84.766 59.5 84.998 59.665 85.199 59.866C85.674 60.341 88.276 60.394 88.534 59.934C88.616 59.787 88.792 59.667 88.925 59.667C89.058 59.667 89.167 59.552 89.167 59.411C89.167 59.271 89.272 59.116 89.4 59.067C90.254 58.739 90.325 29.867 89.472 29.32C89.389 29.267 89.277 28.929 89.222 28.57C89.167 28.211 89.025 27.804 88.907 27.667C88.789 27.529 88.637 27.192 88.568 26.918C88.5 26.644 88.344 26.32 88.222 26.198C88.1 26.076 88 25.862 88 25.723C88 25.583 87.85 25.279 87.667 25.045C87.483 24.812 87.333 24.519 87.333 24.394C87.333 24.269 87.256 24.167 87.161 24.167C87.067 24.167 86.939 24.035 86.878 23.875C86.372 22.553 82.47 18.333 81.754 18.333C81.637 18.333 81.441 18.213 81.319 18.066C81.197 17.919 80.944 17.732 80.757 17.65C80.421 17.503 80.234 17.404 79.583 17.026C79.4 16.92 79.063 16.757 78.833 16.665C78.604 16.573 78.218 16.386 77.974 16.249C77.731 16.112 77.354 16 77.136 16C76.919 16 76.577 15.885 76.376 15.744C76.175 15.604 75.502 15.446 74.88 15.394C74.259 15.341 73.38 15.194 72.928 15.066C71.878 14.769 70.617 14.77 69.572 15.068C69.12 15.198 68.151 15.356 67.419 15.42C66.687 15.483 65.94 15.64 65.757 15.768C65.575 15.896 65.271 16 65.081 16C64.892 16 64.443 16.15 64.083 16.333C63.724 16.517 63.295 16.667 63.131 16.667C62.967 16.667 62.833 16.737 62.833 16.822C62.833 16.908 62.666 17.031 62.462 17.096C62.14 17.198 61.251 17.748 61 18C60.954 18.047 60.585 18.309 60.179 18.584C58.897 19.452 57.165 21.066 55.975 22.501C55.459 23.123 54.999 23.079 54.538 22.362C54.08 21.651 51.978 19.604 50.99 18.908C48.709 17.301 47.359 16.5 46.928 16.5C46.807 16.5 46.614 16.387 46.5 16.25C46.386 16.112 46.056 16 45.767 16C45.477 16 45.084 15.89 44.892 15.756C44.697 15.619 43.926 15.461 43.147 15.397C42.378 15.335 41.459 15.182 41.104 15.058C40.306 14.78 38.643 14.785 37.74 15.068Z" fill="#7F32EC"/>
<path fill-rule="evenodd" clip-rule="evenodd" d="M36.5 15.09C35.594 15.299 35.591 15.301 36.25 15.315C36.617 15.322 37.254 15.222 37.667 15.092C38.655 14.781 37.851 14.779 36.5 15.09ZM41.167 15.083C41.487 15.207 42.087 15.307 42.5 15.307L43.25 15.305L42.25 15.08C40.946 14.786 40.4 14.788 41.167 15.083ZM69.134 14.921C69.086 14.97 68.717 15.074 68.315 15.153C67.602 15.293 67.598 15.297 68.167 15.313C68.487 15.321 69.087 15.222 69.5 15.092C70.19 14.875 70.209 14.855 69.736 14.844C69.453 14.838 69.183 14.873 69.134 14.921ZM73 15.077C73.412 15.215 74.087 15.32 74.5 15.31L75.25 15.292L74.583 15.165C74.217 15.095 73.542 14.991 73.083 14.933L72.25 14.827L73 15.077ZM120.5 15.105C119.721 15.236 118.783 15.42 118.417 15.513C118.05 15.606 117.45 15.755 117.083 15.845C116.717 15.935 116.192 16.109 115.917 16.232C114.335 16.941 112.65 17.818 111.96 18.292C111.526 18.59 111.125 18.833 111.07 18.833C110.97 18.833 110.615 19.091 109.508 19.963C108.428 20.816 106.804 22.594 105.671 24.167C105.307 24.671 104.935 25.171 104.844 25.279C104.706 25.441 104.102 26.523 103.511 27.667C103.013 28.632 102.167 30.869 102.167 31.223C102.167 31.387 102.077 31.686 101.968 31.886C101.772 32.246 101.51 33.673 101.167 36.25C101.048 37.14 101.005 43.313 101.036 54.833L101.083 72.083L101.498 72.748C102.206 73.882 103.389 74.667 104.389 74.667C105.162 74.666 107.167 73.646 107.167 73.252C107.167 73.188 107.317 72.945 107.5 72.712C107.823 72.301 107.833 72.034 107.836 63.936C107.837 59.228 107.904 55.479 107.99 55.344C108.122 55.135 109.26 55.849 109.833 56.5C109.879 56.552 110.367 56.882 110.917 57.233C111.467 57.584 112.104 57.995 112.333 58.146C113.382 58.84 116.681 60.333 117.166 60.333C117.359 60.333 117.719 60.435 117.967 60.56C118.214 60.685 119.129 60.875 120 60.982C120.871 61.089 122.071 61.244 122.667 61.326C123.3 61.412 124.235 61.412 124.917 61.326C128.501 60.87 129.452 60.715 129.781 60.534C129.981 60.424 130.304 60.333 130.498 60.333C131.052 60.333 134.219 58.844 135.947 57.77C141.141 54.544 145.113 48.437 146.204 42C146.646 39.392 146.332 33.227 145.697 32.053C145.589 31.852 145.497 31.515 145.494 31.303C145.491 31.09 145.344 30.617 145.167 30.25C144.99 29.883 144.842 29.482 144.839 29.359C144.836 29.236 144.73 28.936 144.604 28.692C144.479 28.449 144.192 27.875 143.968 27.417C142.39 24.189 139.339 20.673 136.5 18.81C135.034 17.848 134.826 17.731 133.213 16.951C132.683 16.696 132.038 16.377 131.778 16.243C131.519 16.109 131.181 15.997 131.028 15.993C130.875 15.989 130.45 15.873 130.083 15.736C128.173 15.02 123.012 14.68 120.5 15.105ZM175 15.09C174.496 15.206 173.743 15.308 173.328 15.317C172.912 15.326 172.145 15.483 171.623 15.667C171.102 15.85 170.567 16 170.434 16C170.302 16 169.981 16.107 169.722 16.237C169.462 16.367 168.612 16.786 167.833 17.168C166.125 18.004 165.502 18.349 165.202 18.625C165.078 18.74 164.918 18.833 164.847 18.833C164.776 18.833 164.56 18.965 164.368 19.125C164.176 19.285 163.772 19.604 163.471 19.833C162.537 20.544 159.667 23.518 159.667 23.775C159.667 23.827 159.478 24.104 159.247 24.393C158.548 25.268 158.241 25.741 157.916 26.447C157.782 26.739 157.601 27.021 157.515 27.074C157.429 27.127 157.31 27.395 157.25 27.669C157.189 27.943 157.077 28.167 157 28.167C156.923 28.167 156.808 28.41 156.744 28.708C156.68 29.006 156.536 29.438 156.422 29.667C156.052 30.416 155.5 32.24 155.5 32.714C155.5 32.969 155.381 33.456 155.235 33.797C154.85 34.698 154.83 41.217 155.209 42.42C155.353 42.877 155.514 43.559 155.567 43.936C155.62 44.314 155.776 44.839 155.914 45.103C156.052 45.367 156.165 45.738 156.166 45.926C156.166 46.115 156.277 46.415 156.411 46.593C156.546 46.771 156.658 47.03 156.661 47.169C156.664 47.308 156.817 47.701 157 48.044C157.183 48.386 157.333 48.772 157.333 48.902C157.333 49.032 157.392 49.164 157.465 49.194C157.537 49.225 157.812 49.625 158.076 50.083C158.526 50.864 159.05 51.61 160.126 53C160.992 54.118 163.652 56.644 164.448 57.104C164.889 57.359 165.289 57.622 165.337 57.69C165.384 57.757 165.609 57.893 165.837 57.992C166.064 58.091 166.475 58.319 166.75 58.5C167.298 58.86 167.945 59.167 168.157 59.167C168.232 59.167 168.386 59.279 168.5 59.417C168.614 59.554 168.818 59.667 168.954 59.667C169.089 59.667 169.436 59.777 169.725 59.911C170.014 60.045 170.55 60.226 170.917 60.313C171.283 60.4 171.808 60.547 172.083 60.641C174.313 61.402 181.123 61.361 183.167 60.575C183.487 60.452 184.012 60.3 184.333 60.238C184.654 60.175 185.065 60.021 185.245 59.895C185.426 59.77 185.736 59.667 185.933 59.667C186.131 59.667 186.382 59.559 186.491 59.427C186.6 59.296 186.91 59.14 187.178 59.081C187.447 59.022 187.667 58.912 187.667 58.836C187.667 58.761 187.873 58.614 188.125 58.51C188.814 58.224 189.554 57.804 189.802 57.555C189.924 57.433 190.133 57.333 190.267 57.333C190.401 57.333 190.554 57.221 190.606 57.083C190.659 56.946 190.79 56.833 190.897 56.833C191.005 56.833 191.211 56.702 191.356 56.542C191.5 56.381 191.828 56.1 192.084 55.917C192.34 55.733 193.108 54.946 193.792 54.167C194.475 53.387 195.214 52.55 195.434 52.307C195.654 52.063 195.833 51.791 195.833 51.702C195.833 51.613 195.954 51.441 196.101 51.319C196.248 51.197 196.435 50.944 196.517 50.757C196.688 50.367 196.957 49.927 197.375 49.354C197.535 49.135 197.667 48.824 197.667 48.665C197.667 48.505 197.779 48.281 197.917 48.167C198.054 48.053 198.167 47.848 198.167 47.713C198.167 47.578 198.276 47.231 198.409 46.942C198.854 45.98 199.193 44.926 199.355 44.008C199.443 43.508 199.606 42.99 199.716 42.857C199.982 42.536 200.094 35.605 199.853 34.333C199.546 32.712 199.215 31.402 199.022 31.041C198.918 30.847 198.833 30.551 198.833 30.383C198.833 30.216 198.683 29.799 198.5 29.456C198.317 29.114 198.167 28.689 198.167 28.51C198.167 28.332 198.101 28.146 198.022 28.097C197.942 28.047 197.662 27.574 197.399 27.045C195.606 23.432 192.366 20.074 188.583 17.906C188.125 17.644 187.725 17.37 187.694 17.298C187.664 17.226 187.529 17.167 187.394 17.167C187.26 17.167 186.872 17.027 186.533 16.857C185.026 16.1 184.788 16 184.493 16C184.32 16 183.798 15.85 183.333 15.667C182.868 15.483 182.134 15.332 181.702 15.331C181.27 15.329 180.467 15.219 179.917 15.087C178.717 14.797 176.267 14.799 175 15.09ZM34.167 15.583C33.938 15.714 33.563 15.834 33.333 15.85C32.948 15.877 32.944 15.884 33.285 15.95C33.488 15.989 33.901 15.909 34.202 15.77C34.503 15.632 34.938 15.488 35.167 15.449C35.535 15.387 35.525 15.377 35.083 15.362C34.808 15.353 34.396 15.452 34.167 15.583ZM44.074 15.453C44.343 15.493 44.716 15.633 44.902 15.763C45.089 15.893 45.43 15.997 45.662 15.993C46.272 15.982 44.948 15.476 44.167 15.421C43.749 15.391 43.722 15.4 44.074 15.453ZM65.957 15.432C65.903 15.486 65.571 15.633 65.221 15.758C64.689 15.948 64.653 15.987 65.005 15.993C65.236 15.997 65.579 15.893 65.766 15.762C65.953 15.631 66.401 15.494 66.761 15.457L67.417 15.389L66.736 15.361C66.362 15.346 66.011 15.378 65.957 15.432ZM75.745 15.455C75.926 15.498 76.224 15.638 76.407 15.766C76.591 15.895 76.93 15.997 77.162 15.993C77.67 15.984 76.542 15.5 75.833 15.423C75.597 15.397 75.559 15.411 75.745 15.455ZM32.26 16.255C32.001 16.451 31.988 16.5 32.198 16.5C32.342 16.5 32.553 16.387 32.667 16.25C32.931 15.932 32.683 15.935 32.26 16.255ZM46.525 16.257C46.677 16.412 46.891 16.508 47.003 16.471C47.114 16.434 46.99 16.308 46.727 16.19C46.28 15.99 46.268 15.994 46.525 16.257ZM63.76 16.255C63.582 16.39 63.331 16.5 63.203 16.5C63.074 16.5 62.779 16.65 62.545 16.833C62.312 17.017 62.201 17.167 62.299 17.167C62.396 17.167 62.575 17.07 62.696 16.952C62.818 16.834 63.232 16.645 63.618 16.531C64.004 16.417 64.364 16.251 64.42 16.162C64.572 15.916 64.126 15.979 63.76 16.255ZM77.921 16.228C78.102 16.353 78.438 16.512 78.667 16.581C78.896 16.65 79.21 16.817 79.365 16.953C79.52 17.09 79.739 17.17 79.851 17.133C79.962 17.096 79.572 16.826 78.982 16.533C77.874 15.982 77.347 15.83 77.921 16.228ZM30.75 17.003C30.292 17.269 29.803 17.546 29.663 17.618C28.154 18.403 26.289 20.025 25.103 21.583C24.685 22.133 24.253 22.688 24.143 22.815C24.033 22.942 24.02 23.017 24.114 22.982C24.292 22.914 25.833 21.067 25.833 20.921C25.833 20.725 27.493 19.247 28.333 18.696C28.837 18.365 29.287 18.053 29.333 18.002C29.379 17.952 29.604 17.817 29.833 17.703C30.423 17.41 31.71 16.679 31.807 16.582C32.032 16.357 31.492 16.572 30.75 17.003ZM47.75 16.833C48.025 17.015 48.307 17.165 48.377 17.166C48.446 17.166 48.878 17.429 49.335 17.75C49.792 18.071 50.556 18.606 51.031 18.94C51.982 19.607 54.086 21.661 54.538 22.362C54.873 22.884 55.451 23.116 55.725 22.84C55.87 22.694 55.848 22.673 55.634 22.755C55.425 22.834 54.86 22.366 53.467 20.961C51.704 19.182 50.238 18.033 48.37 16.968C47.452 16.444 47.021 16.351 47.75 16.833ZM61.639 17.292C61.608 17.36 61.058 17.769 60.416 18.201C58.597 19.422 55.149 22.752 56.069 22.399C56.214 22.343 56.333 22.234 56.333 22.156C56.333 21.829 58.876 19.467 60.179 18.583C60.585 18.308 60.992 18.027 61.083 17.958C61.825 17.402 62.055 17.177 61.889 17.172C61.782 17.169 61.669 17.223 61.639 17.292ZM80.333 17.417C80.447 17.554 80.616 17.667 80.707 17.667C80.8 17.667 80.782 17.556 80.667 17.417C80.553 17.279 80.384 17.167 80.293 17.167C80.2 17.167 80.218 17.277 80.333 17.417ZM81.274 17.997C81.471 18.204 81.718 18.344 81.822 18.309C81.927 18.274 81.766 18.106 81.465 17.934L80.917 17.622L81.274 17.997ZM82.167 18.482C82.167 18.562 82.344 18.745 82.561 18.887C83.725 19.649 86.478 22.83 86.878 23.875C86.939 24.035 87.067 24.167 87.161 24.167C87.256 24.167 87.333 24.271 87.333 24.398C87.333 24.526 87.481 24.807 87.662 25.023L87.991 25.417L87.698 24.833C86.991 23.429 85.08 20.92 83.889 19.833C82.631 18.686 82.167 18.322 82.167 18.482ZM36.907 21.762C36.595 22.015 36.599 22.021 37 21.915C37.229 21.855 37.904 21.747 38.5 21.676L39.583 21.547L38.407 21.524C37.557 21.507 37.141 21.573 36.907 21.762ZM40.75 21.663C41.3 21.727 41.938 21.833 42.167 21.898C42.567 22.012 42.57 22.007 42.26 21.759C42.033 21.577 41.609 21.507 40.843 21.523L39.75 21.546L40.75 21.663ZM68.407 21.761C68.1 22.009 68.109 22.016 68.583 21.899C68.858 21.831 69.496 21.725 70 21.662L70.917 21.549L69.824 21.525C69.05 21.507 68.636 21.576 68.407 21.761ZM72.25 21.668C72.8 21.735 73.475 21.842 73.75 21.905L74.25 22.019L73.833 21.765C73.563 21.601 73.036 21.518 72.333 21.529L71.25 21.546L72.25 21.668ZM127.219 21.999C129.219 22.458 132.118 23.707 132.306 24.19C132.336 24.269 132.435 24.333 132.525 24.333C133.135 24.333 135.436 26.647 136.667 28.496C136.804 28.703 137.03 29.032 137.169 29.228C137.431 29.595 138.414 31.579 138.915 32.748C139.071 33.114 139.262 33.752 139.338 34.165C139.414 34.578 139.555 35.217 139.651 35.583C139.903 36.546 139.874 39.771 139.603 40.84C139.476 41.34 139.324 42.028 139.264 42.368C139.203 42.708 139.045 43.195 138.911 43.451C138.778 43.707 138.668 44.039 138.668 44.188C138.667 44.337 138.554 44.553 138.417 44.667C138.279 44.781 138.167 45.005 138.167 45.165C138.167 45.324 138.017 45.646 137.833 45.879C137.65 46.112 137.5 46.348 137.5 46.403C137.5 46.751 134.785 50.22 134.061 50.797C133.169 51.508 132.02 52.333 131.924 52.333C131.871 52.333 131.402 52.574 130.881 52.868C127.061 55.024 121.065 55.133 117.25 53.116C113.664 51.22 112.079 49.725 110.147 46.417C108.083 42.882 107.193 37.996 108.082 35.068C108.218 34.618 108.333 34.1 108.337 33.917C108.341 33.733 108.49 33.283 108.667 32.917C108.844 32.55 108.991 32.128 108.994 31.979C108.997 31.83 109.112 31.614 109.25 31.5C109.388 31.386 109.5 31.157 109.5 30.991C109.5 30.826 109.612 30.578 109.75 30.44C109.888 30.303 110 30.133 110 30.063C110 29.176 114.357 24.333 115.156 24.333C115.253 24.333 115.333 24.275 115.333 24.204C115.333 23.82 118.935 22.287 120.667 21.933C123.082 21.441 124.865 21.459 127.219 21.999ZM179.5 21.663C181.697 22.05 184 22.744 184 23.02C184 23.101 184.14 23.167 184.311 23.167C184.482 23.167 184.812 23.317 185.045 23.5C185.279 23.683 185.521 23.833 185.583 23.833C185.646 23.833 185.869 23.965 186.079 24.125C186.29 24.285 186.639 24.528 186.856 24.664C187.595 25.128 189.591 27.261 190.295 28.34C190.682 28.932 191.066 29.499 191.149 29.6C191.466 29.985 192.667 32.623 192.667 32.933C192.667 33.113 192.772 33.409 192.9 33.592C193.035 33.785 193.222 34.834 193.345 36.091C193.641 39.12 193.287 42.114 192.401 44.083C192.277 44.358 192.098 44.771 192.003 45C191.157 47.047 187.292 51.833 186.486 51.833C186.418 51.833 185.964 52.096 185.477 52.417C184.99 52.737 184.51 53 184.412 53C184.314 53 184.149 53.085 184.045 53.188C182.625 54.609 173.879 55.093 172.592 53.823C172.505 53.737 172.309 53.667 172.156 53.667C171.836 53.667 169.392 52.438 168.993 52.077C168.845 51.943 168.638 51.833 168.532 51.833C167.841 51.833 163.333 46.384 163.333 45.549C163.333 45.43 163.26 45.333 163.17 45.333C163.08 45.333 162.957 45.127 162.897 44.875C162.837 44.623 162.692 44.229 162.576 44C161.599 42.084 161.148 35.777 161.873 34.167C162.017 33.846 162.183 33.358 162.24 33.083C162.337 32.622 162.684 31.772 163.022 31.167C163.099 31.029 163.277 30.692 163.419 30.417C164.741 27.843 168.403 23.833 169.43 23.833C169.486 23.833 169.721 23.683 169.955 23.5C170.188 23.317 170.518 23.167 170.689 23.167C170.86 23.167 171 23.101 171 23.02C171 22.76 173.198 22.08 175.333 21.68C176.393 21.481 178.42 21.473 179.5 21.663ZM34.667 22.503C34.162 22.767 33.564 23.067 33.337 23.169C33.109 23.271 32.884 23.406 32.837 23.469C32.789 23.533 32.45 23.789 32.083 24.039C31.13 24.689 28.833 27.415 28.833 27.896C28.833 28.051 29.215 27.58 29.833 26.659C31.128 24.732 33.699 22.85 35.976 22.162L36.417 22.029L36 22.025C35.771 22.023 35.171 22.238 34.667 22.503ZM43 22.11C44.549 22.625 46.153 23.531 47.458 24.625C47.94 25.029 48.333 25.319 48.333 25.27C48.333 25.116 47.492 24.333 47.326 24.333C47.238 24.333 47.167 24.26 47.167 24.171C47.167 24.082 46.96 23.892 46.708 23.749C46.456 23.607 46.025 23.343 45.75 23.164C45.475 22.985 45.063 22.762 44.833 22.668C44.604 22.574 44.218 22.386 43.974 22.249C43.731 22.112 43.356 22.006 43.141 22.013C42.907 22.021 42.851 22.06 43 22.11ZM66.667 22.254C66.438 22.389 66.044 22.573 65.792 22.662C65.54 22.752 65.333 22.891 65.333 22.972C65.333 23.052 65.725 22.93 66.204 22.701C66.683 22.472 67.265 22.227 67.496 22.157L67.917 22.029L67.5 22.019C67.271 22.013 66.896 22.119 66.667 22.254ZM74.667 22.152C74.896 22.213 75.458 22.445 75.917 22.666C76.375 22.888 76.825 23.103 76.917 23.145C77.008 23.187 76.98 23.096 76.855 22.944C76.729 22.791 76.54 22.667 76.435 22.667C76.331 22.667 75.965 22.517 75.623 22.333C75.281 22.15 74.832 22.009 74.626 22.02C74.268 22.038 74.27 22.045 74.667 22.152ZM23.609 23.611C23.439 23.838 23.339 24.062 23.387 24.109C23.434 24.157 23.602 23.999 23.759 23.759C24.13 23.193 24.01 23.075 23.609 23.611ZM64.409 23.413C62.814 24.62 62.298 25.067 62.047 25.46C61.886 25.711 61.641 26.004 61.503 26.111C61.364 26.218 61.295 26.35 61.348 26.404C61.402 26.458 61.761 26.129 62.145 25.674C62.816 24.878 64.48 23.488 65 23.289C65.217 23.205 65.216 23.191 64.992 23.18C64.85 23.173 64.588 23.278 64.409 23.413ZM77.661 23.542C77.977 23.748 78.819 24.495 79.534 25.201C80.249 25.908 80.833 26.431 80.833 26.365C80.833 26.112 79.336 24.548 78.643 24.076C78.243 23.805 77.818 23.49 77.696 23.375C77.575 23.26 77.389 23.167 77.282 23.167C77.175 23.167 77.346 23.335 77.661 23.542ZM22.934 24.693C22.787 24.903 22.667 25.161 22.667 25.267C22.667 25.373 22.554 25.553 22.417 25.667C22.279 25.781 22.175 25.996 22.186 26.145C22.202 26.374 22.217 26.371 22.282 26.125C22.323 25.965 22.422 25.833 22.501 25.833C22.58 25.833 22.696 25.665 22.758 25.458C22.821 25.252 22.988 24.952 23.13 24.791C23.271 24.63 23.345 24.456 23.294 24.405C23.243 24.354 23.081 24.483 22.934 24.693ZM48.422 25.628C48.517 25.695 48.882 26.147 49.234 26.633C49.585 27.118 49.911 27.478 49.956 27.432C50.002 27.387 49.937 27.238 49.812 27.102C49.686 26.967 49.363 26.55 49.093 26.178C48.823 25.805 48.523 25.501 48.426 25.503C48.306 25.504 48.305 25.544 48.422 25.628ZM88.001 25.696C88 25.85 88.103 26.08 88.23 26.206C88.356 26.332 88.511 26.67 88.574 26.956C88.637 27.243 88.796 27.566 88.927 27.676C89.237 27.932 89.227 27.677 88.911 27.26C88.777 27.082 88.667 26.84 88.667 26.722C88.667 26.604 88.517 26.262 88.334 25.962C88.127 25.624 88.001 25.523 88.001 25.696ZM21.847 26.808C21.575 27.317 21.631 27.458 21.934 27.026C22.081 26.817 22.162 26.606 22.114 26.558C22.066 26.511 21.946 26.623 21.847 26.808ZM60.599 27.405C60.084 28.284 60.037 28.543 60.5 27.955C60.683 27.721 60.833 27.473 60.833 27.404C60.833 27.334 60.957 27.139 61.109 26.971C61.261 26.804 61.305 26.667 61.208 26.667C61.111 26.667 60.837 26.999 60.599 27.405ZM81.004 26.875C81.104 26.99 81.368 27.383 81.588 27.75C81.809 28.117 81.992 28.33 81.995 28.223C82.002 27.962 81.144 26.667 80.964 26.667C80.885 26.667 80.903 26.76 81.004 26.875ZM21.278 28.241C21.11 28.651 21.008 29.12 21.05 29.285C21.11 29.515 21.132 29.496 21.147 29.202C21.158 28.993 21.285 28.64 21.43 28.419C21.576 28.198 21.669 27.899 21.639 27.756C21.608 27.612 21.448 27.827 21.278 28.241ZM50 27.798C50 27.898 50.08 28.03 50.178 28.091C50.276 28.151 50.422 28.362 50.501 28.559C50.6 28.804 50.649 28.833 50.656 28.651C50.662 28.504 50.517 28.211 50.333 28C50.15 27.789 50 27.698 50 27.798ZM89.235 28.562C89.319 29.206 89.432 29.457 89.576 29.313C89.618 29.271 89.539 28.94 89.402 28.577L89.152 27.917L89.235 28.562ZM28.609 28.28C28.371 28.518 27.667 30.16 27.68 30.448C27.69 30.674 27.713 30.687 27.774 30.5C27.875 30.186 28.469 28.846 28.679 28.458C28.84 28.159 28.809 28.079 28.609 28.28ZM59.864 28.703C59.755 28.811 59.667 29.014 59.667 29.154C59.667 29.328 59.75 29.288 59.934 29.026C60.226 28.609 60.179 28.388 59.864 28.703ZM82.201 28.826C82.431 29.194 82.592 29.148 82.442 28.757C82.388 28.616 82.266 28.5 82.17 28.5C82.061 28.5 82.072 28.62 82.201 28.826ZM50.798 29.265C51.142 29.912 51.535 31.079 51.662 31.833L51.789 32.583L51.811 31.829C51.823 31.414 51.73 30.926 51.605 30.745C51.479 30.565 51.324 30.178 51.261 29.887C51.197 29.595 51.025 29.257 50.879 29.137C50.642 28.942 50.633 28.956 50.798 29.265ZM82.5 29.513C82.5 29.652 82.583 29.85 82.685 29.951C82.786 30.053 82.935 30.386 83.015 30.693L83.161 31.25L83.091 30.627C83.02 29.994 82.5 29.013 82.5 29.513ZM59.283 29.989C59.127 30.253 59.008 30.682 59.017 30.942L59.034 31.417L59.155 30.917C59.221 30.642 59.37 30.241 59.485 30.027C59.79 29.459 59.616 29.426 59.283 29.989ZM89.705 30C89.705 30.321 89.74 30.452 89.782 30.292C89.823 30.131 89.823 29.869 89.782 29.708C89.74 29.548 89.705 29.679 89.705 30ZM20.708 30.191C20.407 31.034 20.451 31.559 20.763 30.839C20.901 30.522 20.992 30.115 20.965 29.935C20.929 29.693 20.863 29.759 20.708 30.191ZM89.928 31.667C90.102 33.647 89.994 57.536 89.807 58.28C89.711 58.664 89.528 59.018 89.4 59.067C89.272 59.116 89.167 59.25 89.167 59.364C89.167 59.763 89.724 59.021 90.03 58.213C90.446 57.118 90.488 33.052 90.076 31.5L89.833 30.583L89.928 31.667ZM27.339 31.156C27.244 31.333 27.176 31.764 27.188 32.114L27.208 32.75L27.33 32.083C27.397 31.717 27.508 31.285 27.577 31.125C27.747 30.729 27.554 30.754 27.339 31.156ZM83.274 31.792C83.352 31.952 83.455 37.896 83.503 45L83.588 57.917L83.625 45.083C83.661 32.548 83.636 31.5 83.296 31.5C83.196 31.5 83.187 31.614 83.274 31.792ZM58.663 32.094C58.561 32.362 58.515 37.302 58.539 45.303L58.578 58.083L58.669 45.25C58.718 38.192 58.822 32.248 58.899 32.042C58.976 31.835 58.991 31.667 58.932 31.667C58.873 31.667 58.752 31.859 58.663 32.094ZM20.413 44.917C20.413 52.067 20.433 54.967 20.458 51.363C20.483 47.758 20.483 41.908 20.458 38.363C20.433 34.817 20.413 37.767 20.413 44.917ZM51.878 45.417C51.849 56.224 51.877 57.802 52.1 58.167L52.354 58.583L52.223 58.167C52.152 57.938 52.052 52.2 52.002 45.417L51.911 33.083L51.878 45.417ZM26.762 58.31C26.385 59.039 26.444 59.179 26.857 58.535C27.05 58.233 27.167 57.945 27.116 57.894C27.066 57.844 26.907 58.031 26.762 58.31ZM20.5 58.144C20.5 59.459 22.785 60.696 24.583 60.354C25.12 60.252 24.983 60.227 23.888 60.227C22.51 60.228 21.013 59.479 20.995 58.781C20.987 58.511 20.5 57.884 20.5 58.144ZM58.049 58.781C57.274 60.161 54.682 60.835 53.671 59.92C53.484 59.751 53.288 59.657 53.235 59.71C53.058 59.886 53.905 60.296 54.667 60.402C55.586 60.53 56.886 60.304 57.235 59.955C57.378 59.813 57.552 59.671 57.622 59.64C57.856 59.537 58.523 58.486 58.465 58.313C58.434 58.219 58.247 58.43 58.049 58.781ZM83.672 58.23C83.669 58.311 83.822 58.629 84.012 58.936C84.377 59.527 85.333 60.309 85.333 60.017C85.333 59.922 85.143 59.744 84.91 59.622C84.677 59.5 84.304 59.104 84.081 58.742C83.859 58.38 83.675 58.149 83.672 58.23ZM52.333 58.743C52.333 58.81 52.483 59.055 52.667 59.288C52.85 59.521 53 59.657 53 59.59C53 59.524 52.85 59.279 52.667 59.045C52.483 58.812 52.333 58.676 52.333 58.743ZM26.05 59.388C25.977 59.509 25.785 59.657 25.625 59.716C25.465 59.775 25.333 59.905 25.333 60.006C25.333 60.107 25.556 60.031 25.828 59.837C26.388 59.438 26.6 59.167 26.351 59.167C26.259 59.167 26.123 59.266 26.05 59.388ZM86.109 60.375C86.489 60.451 87.164 60.447 87.609 60.367C88.336 60.235 88.267 60.222 86.917 60.228C85.663 60.235 85.53 60.259 86.109 60.375Z" fill="#7F32EC"/>
<path fill-rule="evenodd" clip-rule="evenodd" d="M3.833 0.768989C2.238 1.36799 1.315 2.27199 1.028 3.51699C0.774999 4.60899 0.754999 56.875 1.006 57.964C1.628 60.66 4.739 61.662 6.958 59.88C7.348 59.567 7.667 59.228 7.667 59.127C7.667 59.026 7.798 58.798 7.958 58.621C8.234 58.316 8.25 56.758 8.25 30.858V3.41699L7.837 2.74999C6.965 1.34299 4.954 0.348989 3.833 0.768989ZM295.083 0.803989C293.126 1.46999 291.338 4.69799 292.522 5.42999C292.601 5.47899 292.667 5.67199 292.667 5.85799C292.667 6.04499 293.03 6.54699 293.476 6.97699C294.688 8.14499 294.883 8.16599 304.26 8.16999C312.466 8.17299 315.182 8.31099 315.669 8.75199C315.819 8.88799 316.032 8.99999 316.14 8.99999C316.901 8.99999 319.465 11.451 319.995 12.684C320.089 12.904 320.231 13.196 320.31 13.333C321.196 14.875 321.202 18.414 320.321 19.833C320.236 19.971 320.09 20.259 319.998 20.473C319.303 22.088 316.478 24.5 315.282 24.5C315.115 24.5 314.814 24.594 314.614 24.708C314.339 24.866 311.899 24.937 304.667 25C295.6 25.079 295.052 25.101 294.5 25.405C292.775 26.356 291.701 28.685 292.496 29.75C292.565 29.842 292.666 30.104 292.721 30.333C292.878 30.982 294.158 32.167 294.703 32.167C294.878 32.167 295.186 32.26 295.386 32.375C295.663 32.533 298.37 32.603 306.683 32.667C314.474 32.726 317.683 32.804 317.85 32.939C317.978 33.043 318.346 33.183 318.667 33.25C318.987 33.317 319.331 33.437 319.431 33.517C319.531 33.597 319.989 33.869 320.449 34.123C321.941 34.943 323.86 37.094 324.505 38.667C324.599 38.896 324.783 39.308 324.914 39.583C325.552 40.922 325.561 44.86 324.93 46.25C323.385 49.651 322.097 51.081 319.385 52.41C318.91 52.643 318.385 52.836 318.219 52.839C318.053 52.842 317.729 52.952 317.5 53.083C317.151 53.283 315.367 53.322 306.547 53.327C295.214 53.334 295.206 53.334 293.902 54.208C291.33 55.931 292.07 59.828 295.136 60.708C297.634 61.425 316.925 61.057 319.522 60.242C319.947 60.109 320.392 60 320.511 60C320.631 60 321.033 59.862 321.406 59.692C321.778 59.523 322.271 59.3 322.5 59.197C323.909 58.561 325.731 57.391 326.743 56.474C327.664 55.639 329.5 53.445 329.5 53.18C329.5 53.081 329.571 53 329.658 53C329.805 53 330.005 52.694 330.53 51.667C330.647 51.438 330.787 51.212 330.841 51.167C330.94 51.083 331.332 50.272 331.986 48.801C332.177 48.37 332.333 47.873 332.333 47.696C332.333 47.519 332.46 47.084 332.616 46.729C333.016 45.813 333.006 40.394 332.602 39.464C332.454 39.123 332.333 38.647 332.333 38.406C332.333 38.165 332.23 37.769 332.104 37.526C331.977 37.282 331.704 36.633 331.495 36.083C331.286 35.533 331.053 35.002 330.976 34.902C330.9 34.802 330.601 34.277 330.313 33.735C329.3 31.828 327.148 29.584 324.994 28.187C324.06 27.582 324.106 27.381 325.624 25.417C326.265 24.587 327.666 21.904 327.668 21.503C327.668 21.364 327.785 21.027 327.927 20.754C328.833 19.018 328.499 13.081 327.364 10.709C326.944 9.83199 326.397 8.84099 326.015 8.26699C325.778 7.90899 325.508 7.50299 325.417 7.36499C325.325 7.22599 325.137 6.98399 325 6.82699C324.862 6.67099 324.578 6.31399 324.368 6.03599C323.589 5.00399 321.159 2.99999 320.685 2.99999C320.606 2.99999 320.451 2.89199 320.342 2.76099C320.233 2.62899 319.929 2.47399 319.667 2.41699C319.404 2.35899 319.1 2.20399 318.991 2.07299C318.882 1.94099 318.682 1.83299 318.546 1.83299C318.411 1.83299 318.064 1.72899 317.775 1.60199C315.947 0.796989 315.48 0.764989 305.167 0.726989C299.804 0.706989 295.267 0.741989 295.083 0.803989ZM362.681 1.00299C361.511 1.42399 360 3.12899 360 4.02899C360 4.12999 359.839 4.55899 359.643 4.98199C359.264 5.79699 359.091 6.20099 358.494 7.66699C358.289 8.17099 358.027 8.80799 357.911 9.08299C357.795 9.35799 357.533 9.99599 357.328 10.5C357.122 11.004 356.86 11.642 356.744 11.917C356.629 12.192 356.366 12.829 356.161 13.333C355.956 13.837 355.691 14.475 355.573 14.75C355.455 15.025 355.198 15.662 355.003 16.167C354.807 16.671 354.544 17.308 354.419 17.583C354.294 17.858 354.032 18.496 353.836 19C353.64 19.504 353.377 20.142 353.25 20.417C353.124 20.692 352.85 21.367 352.641 21.917C352.433 22.467 352.166 23.065 352.048 23.245C351.93 23.426 351.833 23.684 351.833 23.818C351.833 24.057 351.373 25.151 350.904 26.026C350.773 26.269 350.667 26.564 350.667 26.681C350.667 26.799 350.509 27.237 350.317 27.656C349.732 28.931 349.54 29.379 349.17 30.333C348.975 30.837 348.748 31.4 348.665 31.583C348.583 31.767 348.321 32.404 348.083 33C347.846 33.596 347.583 34.233 347.5 34.417C347.417 34.6 347.153 35.237 346.914 35.833C346.675 36.429 346.371 37.153 346.24 37.442C346.108 37.731 346 38.043 346 38.137C346 38.23 345.889 38.519 345.752 38.778C345.377 39.492 344.833 40.794 344.833 40.977C344.833 41.067 344.722 41.352 344.586 41.611C344.211 42.325 343.667 43.627 343.667 43.811C343.667 43.9 343.561 44.185 343.433 44.445C342.921 45.476 342.5 46.462 342.5 46.63C342.5 46.727 342.395 47.019 342.266 47.278C341.754 48.309 341.333 49.296 341.333 49.463C341.333 49.56 341.228 49.852 341.099 50.111C340.588 51.142 340.167 52.129 340.167 52.296C340.167 52.394 340.061 52.685 339.933 52.945C339.385 54.048 339 54.969 338.995 55.185C338.992 55.312 338.879 55.562 338.745 55.74C337.704 57.116 339.145 59.913 341.281 60.663C342.709 61.165 367.359 61.19 368.963 60.691C369.902 60.399 371.167 59.492 371.167 59.111C371.167 59.019 371.29 58.806 371.441 58.64C371.641 58.419 371.716 58.019 371.716 57.167C371.716 56.315 371.641 55.915 371.441 55.694C371.29 55.527 371.167 55.317 371.167 55.228C371.167 54.949 370.115 54.045 369.417 53.723C368.796 53.438 368.042 53.413 358.458 53.369C351.899 53.339 348.167 53.262 348.167 53.158C348.167 53.069 348.233 52.865 348.314 52.706C348.396 52.547 348.628 52.004 348.832 51.5C349.035 50.996 349.295 50.358 349.411 50.083C349.527 49.808 349.788 49.171 349.992 48.667C350.196 48.163 350.469 47.538 350.598 47.278C350.728 47.019 350.833 46.727 350.833 46.63C350.833 46.462 351.254 45.476 351.766 44.445C351.895 44.185 352 43.894 352 43.796C352 43.625 352.474 42.536 352.937 41.641C353.063 41.398 353.167 41.106 353.167 40.993C353.167 40.879 353.327 40.441 353.524 40.018C353.903 39.203 354.075 38.799 354.672 37.333C354.878 36.829 355.14 36.192 355.256 35.917C355.371 35.642 355.634 35.004 355.839 34.5C356.044 33.996 356.309 33.358 356.427 33.083C356.545 32.808 356.802 32.171 356.997 31.667C357.193 31.162 357.456 30.525 357.581 30.25C357.706 29.975 357.968 29.337 358.164 28.833C358.36 28.329 358.623 27.692 358.75 27.417C358.876 27.142 359.15 26.467 359.359 25.917C359.567 25.367 359.834 24.769 359.952 24.588C360.07 24.407 360.167 24.15 360.167 24.016C360.167 23.777 360.627 22.683 361.096 21.808C361.227 21.564 361.333 21.252 361.333 21.113C361.333 20.974 361.445 20.648 361.581 20.389C361.956 19.675 362.5 18.373 362.5 18.189C362.5 18.1 362.611 17.815 362.748 17.555C363.187 16.719 363.667 15.525 363.667 15.269C363.667 15.132 363.74 14.975 363.829 14.919C363.918 14.864 364.068 14.541 364.163 14.201C364.423 13.268 364.942 12.644 365.093 13.084C365.45 14.132 366.055 15.605 366.184 15.742C366.266 15.829 366.333 16.042 366.333 16.216C366.333 16.39 366.443 16.731 366.576 16.974C366.932 17.62 367.5 18.956 367.5 19.144C367.5 19.233 367.611 19.519 367.746 19.778C368.012 20.29 368.245 20.832 368.914 22.5C369.153 23.096 369.417 23.733 369.5 23.917C369.583 24.1 369.847 24.738 370.086 25.333C370.325 25.929 370.629 26.653 370.76 26.942C370.892 27.231 371 27.526 371 27.598C371 27.669 371.157 28.071 371.349 28.489C371.542 28.908 371.813 29.512 371.953 29.833C372.093 30.154 372.311 30.629 372.437 30.889C372.563 31.148 372.667 31.44 372.667 31.537C372.667 31.704 373.088 32.691 373.599 33.722C373.728 33.981 373.833 34.273 373.833 34.37C373.833 34.538 374.254 35.524 374.766 36.555C374.895 36.815 375 37.1 375 37.189C375 37.373 375.544 38.675 375.919 39.389C376.055 39.648 376.167 39.937 376.167 40.03C376.167 40.123 376.289 40.473 376.439 40.808C376.588 41.143 376.855 41.754 377.03 42.167C377.206 42.579 377.458 43.129 377.591 43.389C377.725 43.648 377.833 43.94 377.833 44.037C377.833 44.204 378.254 45.191 378.766 46.222C378.895 46.481 379 46.773 379 46.87C379 47.038 379.421 48.024 379.933 49.055C380.061 49.315 380.167 49.606 380.167 49.704C380.167 49.871 380.588 50.858 381.099 51.889C381.228 52.148 381.333 52.44 381.333 52.537C381.333 52.704 381.754 53.691 382.266 54.722C382.395 54.981 382.5 55.273 382.5 55.37C382.5 55.467 382.658 55.893 382.851 56.315C383.045 56.738 383.294 57.308 383.406 57.583C384.211 59.558 384.943 60.313 386.387 60.66C389.795 61.477 392.135 58.285 390.597 54.917C390.472 54.642 390.211 54.071 390.018 53.648C389.825 53.226 389.667 52.801 389.667 52.704C389.667 52.606 389.554 52.296 389.417 52.014C389.279 51.731 389.054 51.269 388.917 50.986C388.779 50.704 388.667 50.394 388.667 50.296C388.667 50.199 388.524 49.812 388.349 49.435C388.174 49.058 387.87 48.337 387.672 47.833C387.475 47.329 387.209 46.692 387.081 46.417C386.953 46.142 386.65 45.397 386.407 44.762C386.164 44.127 385.902 43.489 385.825 43.345C385.748 43.201 385.485 42.558 385.242 41.917C384.999 41.275 384.732 40.679 384.65 40.592C384.567 40.505 384.5 40.291 384.5 40.117C384.5 39.944 384.393 39.602 384.263 39.359C383.794 38.484 383.333 37.39 383.333 37.151C383.333 37.017 383.237 36.76 383.119 36.579C383.001 36.398 382.734 35.8 382.525 35.25C382.317 34.7 382.049 34.025 381.929 33.75C381.81 33.475 381.545 32.837 381.341 32.333C381.137 31.829 380.864 31.204 380.735 30.945C380.606 30.685 380.5 30.394 380.5 30.296C380.5 30.129 380.079 29.142 379.567 28.111C379.439 27.852 379.333 27.56 379.333 27.463C379.333 27.296 378.912 26.309 378.401 25.278C378.272 25.019 378.167 24.733 378.167 24.644C378.167 24.461 377.623 23.159 377.248 22.445C377.111 22.185 377 21.897 377 21.803C377 21.71 376.892 21.397 376.76 21.109C376.629 20.82 376.325 20.096 376.086 19.5C375.847 18.904 375.584 18.267 375.501 18.083C375.419 17.9 375.191 17.337 374.996 16.833C374.801 16.329 374.539 15.692 374.414 15.417C374.289 15.142 374.025 14.504 373.828 14C373.63 13.496 373.326 12.775 373.151 12.398C372.976 12.022 372.833 11.634 372.833 11.537C372.833 11.44 372.71 11.111 372.559 10.805C371.956 9.58299 371.833 9.29899 371.833 9.12999C371.833 8.96199 371.412 7.97599 370.901 6.94499C370.772 6.68499 370.667 6.39399 370.667 6.29599C370.667 6.19899 370.509 5.77399 370.315 5.35199C370.122 4.92899 369.872 4.35799 369.76 4.08299C369.014 2.25199 368.381 1.53899 367.035 1.01199C365.87 0.554989 363.937 0.550989 362.681 1.00299ZM242.083 0.999986C242.027 1.09199 241.837 1.16699 241.663 1.16699C241.198 1.16699 240.191 2.11799 239.819 2.90999C239.504 3.57999 239.498 4.10999 239.553 24.673C239.612 46.843 239.609 46.773 240.34 48.833C240.811 50.165 241.895 52.5 242.041 52.5C242.11 52.5 242.167 52.585 242.167 52.69C242.167 53.686 245.608 57.411 247.996 59C248.203 59.137 248.532 59.371 248.728 59.519C248.923 59.667 249.271 59.845 249.5 59.916C249.729 59.987 250.065 60.147 250.245 60.272C250.426 60.398 250.689 60.5 250.829 60.501C250.969 60.502 251.298 60.614 251.561 60.751C251.823 60.888 252.142 61 252.268 61C252.395 61 252.949 61.156 253.5 61.346C256.389 62.346 258.787 59.559 257.708 56.456C257.259 55.162 256.239 54.339 254.583 53.934C252.128 53.333 249.511 50.964 248.118 48.083C247.035 45.841 246.988 45.169 247.04 32.645L247.083 22.417L251.417 22.333C255.393 22.257 255.791 22.223 256.249 21.917C256.956 21.444 257.467 20.825 257.588 20.294C257.645 20.043 257.762 19.794 257.846 19.742C258.216 19.514 257.789 17.879 257.122 16.973C256.3 15.855 255.869 15.759 251.25 15.667L247.083 15.583L247.04 9.49999C246.993 2.87399 246.96 2.63199 245.975 1.72099C245.204 1.00699 242.4 0.486989 242.083 0.999986ZM5.685 1.25599C6.545 1.55999 7.243 2.18099 7.682 3.03499C8.158 3.95999 8.183 57.629 7.708 58.52C6.422 60.934 3.195 61.192 1.662 59.005L1.25 58.417L1.206 31.192C1.178 13.194 1.22 3.75399 1.332 3.33999C1.793 1.62499 3.888 0.621989 5.685 1.25599ZM315.167 1.36299C316.037 1.49499 316.9 1.68199 317.083 1.77899C317.267 1.87699 317.69 2.00499 318.025 2.06599C318.359 2.12599 318.725 2.28599 318.837 2.42099C318.949 2.55599 319.177 2.66699 319.344 2.66699C319.511 2.66699 319.694 2.74299 319.752 2.83599C319.809 2.92899 320.095 3.11499 320.386 3.24899C320.976 3.52099 321.408 3.79199 321.847 4.16699C322.008 4.30399 322.452 4.67399 322.834 4.98799C323.978 5.92999 326.28 9.06299 326.76 10.333C326.812 10.471 326.963 10.808 327.095 11.083C327.913 12.785 328.264 18.326 327.682 20.333C327.14 22.2 325.724 24.795 324.144 26.814C323.642 27.457 323.764 27.749 324.875 28.567C326.131 29.491 327.068 30.264 327.65 30.858C328.645 31.871 329.167 32.481 329.167 32.632C329.167 32.72 329.274 32.881 329.405 32.99C329.536 33.099 329.843 33.571 330.088 34.04C330.334 34.509 330.596 35.011 330.672 35.155C331.062 35.897 331.5 36.967 331.501 37.178C331.502 37.309 331.615 37.633 331.753 37.897C331.89 38.161 332.047 38.686 332.1 39.064C332.153 39.441 332.302 40.291 332.432 40.951C332.729 42.473 332.732 44.172 332.438 45.34C332.311 45.84 332.162 46.611 332.106 47.053C332.049 47.494 331.89 48.017 331.752 48.215C331.613 48.412 331.5 48.736 331.5 48.933C331.5 49.131 331.387 49.386 331.25 49.5C331.112 49.614 331 49.838 331 49.998C331 50.158 330.869 50.468 330.708 50.688C330.276 51.279 330.019 51.705 329.835 52.129C329.745 52.338 329.577 52.622 329.461 52.76C329.012 53.295 328.901 53.438 328.432 54.083C327.767 54.998 326.235 56.48 325.332 57.083C324.92 57.358 324.558 57.64 324.528 57.708C324.497 57.777 324.376 57.833 324.259 57.833C324.141 57.833 323.854 57.983 323.621 58.167C323.388 58.35 323.083 58.5 322.944 58.5C322.805 58.5 322.588 58.603 322.462 58.728C322.337 58.853 322.05 59.009 321.826 59.073C321.601 59.137 321.192 59.289 320.917 59.41C320.446 59.618 319.977 59.753 318.167 60.205C317.652 60.333 313.912 60.396 306.25 60.404L295.083 60.417L294.384 59.992C293.136 59.235 292.917 58.806 292.917 57.117C292.917 55.887 292.965 55.616 293.208 55.48C293.369 55.39 293.5 55.217 293.5 55.094C293.5 54.003 294.964 53.848 305.382 53.84C314.729 53.833 317.571 53.701 318.286 53.239C318.489 53.107 318.766 53 318.902 53C319.248 53 320.968 52.061 321.801 51.418C323.205 50.333 324.903 47.69 325.603 45.5C325.943 44.438 326.024 41.185 325.721 40.81C325.62 40.685 325.486 40.269 325.422 39.885C325.359 39.5 325.201 39.097 325.07 38.989C324.94 38.881 324.833 38.657 324.833 38.491C324.833 38.326 324.735 38.091 324.614 37.97C324.494 37.849 324.19 37.4 323.94 36.973C323.007 35.379 320.818 33.597 318.927 32.891C316.968 32.16 316.359 32.121 305.333 32.017L294.75 31.917L294.226 31.524C293.137 30.706 292.917 30.226 292.917 28.667V27.25L293.6 26.567C294.781 25.385 295.249 25.336 305.75 25.29C315.602 25.246 314.631 25.335 316.817 24.273C317.522 23.931 319.357 22.276 319.799 21.583C320.297 20.804 320.637 20.148 321.107 19.058C322.265 16.372 320.658 11.732 317.833 9.60599C315.432 7.79999 315.278 7.77799 304.079 7.67199C293.849 7.57499 294.695 7.66699 293.58 6.52899C292.05 4.96799 292.81 2.09699 294.957 1.32399C296.028 0.938989 312.57 0.970989 315.167 1.36299ZM366.714 1.34699C367.851 1.72699 368.442 2.19299 368.851 3.03299C369.501 4.36699 369.833 5.13299 369.833 5.29599C369.833 5.39399 369.939 5.68499 370.067 5.94499C370.605 7.02699 371 7.96599 371 8.15899C371 8.27299 371.103 8.56399 371.229 8.80799C371.719 9.75199 372.167 10.796 372.167 10.993C372.167 11.106 372.268 11.398 372.391 11.641C372.813 12.471 373.141 13.249 373.333 13.873C373.438 14.215 373.585 14.533 373.66 14.579C373.735 14.625 373.845 14.926 373.905 15.248C373.966 15.57 374.087 15.833 374.174 15.833C374.262 15.833 374.333 15.966 374.333 16.127C374.333 16.289 374.483 16.701 374.667 17.044C374.85 17.386 375 17.745 375 17.842C375 18.042 375.557 19.359 375.924 20.026C376.057 20.269 376.167 20.609 376.167 20.78C376.167 20.952 376.263 21.24 376.381 21.421C376.499 21.602 376.766 22.2 376.975 22.75C377.183 23.3 377.457 23.975 377.583 24.25C377.71 24.525 377.974 25.162 378.169 25.667C378.365 26.171 378.628 26.808 378.753 27.083C378.878 27.358 379.139 27.996 379.334 28.5C379.529 29.004 379.795 29.629 379.927 29.889C380.059 30.148 380.167 30.44 380.167 30.537C380.167 30.704 380.588 31.691 381.099 32.722C381.228 32.981 381.333 33.273 381.333 33.37C381.333 33.538 381.754 34.524 382.266 35.555C382.395 35.815 382.5 36.106 382.5 36.204C382.5 36.371 382.921 37.358 383.433 38.389C383.561 38.648 383.667 38.94 383.667 39.037C383.667 39.204 384.088 40.191 384.599 41.222C384.728 41.481 384.833 41.773 384.833 41.87C384.833 42.038 385.254 43.024 385.766 44.055C385.895 44.315 386 44.6 386 44.689C386 44.873 386.544 46.175 386.919 46.889C387.055 47.148 387.167 47.467 387.167 47.597C387.167 47.728 387.317 48.114 387.5 48.456C387.683 48.799 387.833 49.167 387.833 49.276C387.833 49.384 387.939 49.685 388.067 49.945C388.579 50.976 389 51.962 389 52.13C389 52.227 389.105 52.519 389.234 52.778C389.782 53.881 390.167 54.802 390.172 55.018C390.175 55.146 390.287 55.396 390.422 55.574C391.205 56.609 390.61 58.764 389.226 59.902C388.014 60.899 385.096 60.291 384.467 58.911C384.364 58.685 384.217 58.5 384.14 58.5C384.063 58.5 383.997 58.369 383.994 58.208C383.991 58.048 383.844 57.617 383.667 57.25C383.49 56.883 383.342 56.461 383.339 56.312C383.336 56.163 383.221 55.947 383.083 55.833C382.946 55.719 382.831 55.504 382.828 55.355C382.825 55.205 382.677 54.783 382.5 54.417C382.323 54.05 382.175 53.628 382.172 53.479C382.169 53.33 382.054 53.114 381.917 53C381.779 52.886 381.667 52.651 381.667 52.479C381.667 52.307 381.517 51.886 381.333 51.544C381.15 51.201 381 50.798 381 50.648C381 50.497 380.887 50.281 380.75 50.167C380.613 50.053 380.5 49.818 380.5 49.646C380.5 49.473 380.35 49.052 380.167 48.71C379.983 48.368 379.833 47.999 379.833 47.891C379.833 47.782 379.73 47.481 379.604 47.222C379.215 46.423 378.869 45.624 378.497 44.667C378.302 44.163 378.039 43.525 377.914 43.25C377.789 42.975 377.526 42.337 377.331 41.833C376.96 40.878 376.766 40.426 376.183 39.156C375.991 38.737 375.833 38.299 375.833 38.181C375.833 38.064 375.727 37.769 375.596 37.526C375.116 36.63 374.667 35.554 374.667 35.301C374.667 35.158 374.554 34.947 374.417 34.833C374.279 34.719 374.167 34.503 374.167 34.352C374.167 34.202 374.017 33.799 373.833 33.456C373.65 33.114 373.5 32.693 373.5 32.521C373.5 32.349 373.387 32.114 373.25 32C373.113 31.886 373 31.669 373 31.519C373 31.368 372.85 30.965 372.667 30.623C372.483 30.281 372.333 29.86 372.333 29.688C372.333 29.515 372.221 29.281 372.083 29.167C371.946 29.053 371.833 28.845 371.833 28.706C371.833 28.472 371.472 27.595 370.901 26.445C370.772 26.185 370.667 25.894 370.667 25.796C370.667 25.629 370.246 24.642 369.734 23.611C369.605 23.352 369.5 23.067 369.5 22.977C369.5 22.794 368.956 21.492 368.581 20.778C368.445 20.519 368.333 20.233 368.333 20.144C368.333 19.961 367.789 18.659 367.414 17.945C367.278 17.685 367.167 17.4 367.167 17.311C367.167 17.127 366.623 15.825 366.248 15.111C366.111 14.852 366 14.567 366 14.477C366 14.388 365.861 14 365.691 13.616C365.521 13.231 365.336 12.785 365.28 12.625C365.068 12.023 364 12.743 364 13.487C364 13.639 363.85 14.057 363.667 14.417C363.483 14.776 363.333 15.172 363.333 15.297C363.333 15.422 363.221 15.636 363.083 15.774C362.946 15.911 362.833 16.153 362.833 16.31C362.833 16.467 362.683 16.89 362.5 17.25C362.317 17.61 362.167 18.038 362.167 18.202C362.167 18.366 362.1 18.5 362.018 18.5C361.936 18.5 361.821 18.706 361.762 18.958C361.703 19.21 361.553 19.642 361.429 19.917C361.304 20.192 361.045 20.762 360.851 21.185C360.658 21.607 360.5 22.033 360.5 22.13C360.5 22.227 360.395 22.519 360.266 22.778C359.754 23.809 359.333 24.796 359.333 24.963C359.333 25.06 359.228 25.352 359.099 25.611C358.588 26.642 358.167 27.629 358.167 27.796C358.167 27.894 358.061 28.185 357.933 28.445C357.421 29.476 357 30.462 357 30.63C357 30.727 356.895 31.019 356.766 31.278C356.254 32.309 355.833 33.296 355.833 33.463C355.833 33.56 355.728 33.852 355.599 34.111C355.088 35.142 354.667 36.129 354.667 36.296C354.667 36.394 354.561 36.685 354.433 36.945C353.921 37.976 353.5 38.962 353.5 39.13C353.5 39.227 353.395 39.519 353.266 39.778C352.754 40.809 352.333 41.796 352.333 41.963C352.333 42.06 352.221 42.371 352.083 42.653C351.946 42.936 351.721 43.398 351.583 43.68C351.446 43.963 351.333 44.273 351.333 44.37C351.333 44.538 350.912 45.524 350.401 46.555C350.272 46.815 350.167 47.106 350.167 47.204C350.167 47.371 349.746 48.358 349.234 49.389C349.105 49.648 349 49.949 349 50.058C349 50.166 348.85 50.535 348.667 50.877C348.483 51.219 348.333 51.64 348.333 51.812C348.333 51.985 348.217 52.222 348.075 52.34C347.908 52.479 347.834 52.766 347.867 53.152L347.917 53.75L358.333 53.847C364.063 53.9 368.945 54 369.183 54.07C370.258 54.383 371.671 56.442 371.45 57.373C371.125 58.741 370.375 59.766 369.37 60.214C368.764 60.485 343.472 60.599 341.796 60.339C339.729 60.018 338.276 57.762 339.065 56.099C339.213 55.787 339.333 55.385 339.333 55.204C339.333 55.022 339.446 54.781 339.583 54.667C339.721 54.553 339.833 54.336 339.833 54.185C339.833 54.035 339.983 53.632 340.167 53.29C340.35 52.948 340.5 52.527 340.5 52.354C340.5 52.182 340.613 51.947 340.75 51.833C340.887 51.719 341 51.512 341 51.373C341 51.139 341.362 50.262 341.933 49.111C342.061 48.852 342.167 48.567 342.167 48.477C342.167 48.294 342.711 46.992 343.086 46.278C343.222 46.019 343.336 45.719 343.339 45.611C343.342 45.504 343.49 45.117 343.667 44.75C343.844 44.383 343.991 43.961 343.994 43.812C343.997 43.663 344.113 43.447 344.25 43.333C344.387 43.219 344.503 43.004 344.506 42.855C344.509 42.705 344.656 42.283 344.833 41.917C345.01 41.55 345.158 41.128 345.161 40.979C345.164 40.83 345.279 40.614 345.417 40.5C345.554 40.386 345.669 40.17 345.672 40.021C345.675 39.872 345.823 39.45 346 39.083C346.177 38.717 346.325 38.295 346.328 38.145C346.331 37.996 346.446 37.781 346.583 37.667C346.721 37.553 346.833 37.318 346.833 37.146C346.833 36.973 346.983 36.552 347.167 36.21C347.35 35.868 347.5 35.499 347.5 35.391C347.5 35.282 347.605 34.981 347.734 34.722C348.246 33.691 348.667 32.704 348.667 32.537C348.667 32.44 348.775 32.148 348.909 31.889C349.364 31 349.833 29.895 349.833 29.711C349.833 29.61 349.959 29.277 350.112 28.972C350.266 28.666 350.491 28.218 350.612 27.974C350.734 27.731 350.833 27.439 350.833 27.326C350.833 27.213 350.994 26.774 351.19 26.352C351.569 25.536 351.742 25.132 352.339 23.667C352.544 23.162 352.807 22.525 352.922 22.25C353.038 21.975 353.3 21.337 353.506 20.833C354.083 19.416 354.27 18.978 354.649 18.148C354.842 17.726 355 17.301 355 17.204C355 17.106 355.105 16.815 355.234 16.555C355.746 15.524 356.167 14.538 356.167 14.37C356.167 14.273 356.272 13.981 356.401 13.722C356.912 12.691 357.333 11.704 357.333 11.537C357.333 11.44 357.439 11.148 357.567 10.889C358.079 9.85799 358.5 8.87099 358.5 8.70399C358.5 8.60599 358.605 8.31499 358.734 8.05499C359.246 7.02399 359.667 6.03799 359.667 5.86999C359.667 5.77299 359.772 5.48099 359.901 5.22199C360.418 4.17899 360.833 3.20399 360.833 3.02999C360.833 2.57399 362.094 1.53799 362.791 1.42199C363.18 1.35699 363.541 1.23599 363.592 1.15199C363.764 0.873989 365.653 0.991989 366.714 1.34699ZM245.682 2.09799C246.581 2.97599 246.667 3.66399 246.667 10.014C246.667 13.016 246.712 15.591 246.768 15.736C246.856 15.966 247.359 16.001 250.643 16.005C256.189 16.013 257.333 16.541 257.324 19.083C257.315 21.538 256.301 22 250.929 22C248.147 22 247.011 22.056 246.867 22.2C246.313 22.754 246.671 46.225 247.246 47.046C247.386 47.245 247.5 47.574 247.5 47.777C247.5 47.981 247.576 48.194 247.669 48.252C247.762 48.309 247.952 48.595 248.092 48.886C248.231 49.178 248.466 49.642 248.613 49.917C248.963 50.572 251.444 53 251.763 53C251.899 53 252.054 53.112 252.106 53.25C252.159 53.387 252.289 53.5 252.395 53.5C252.501 53.5 252.868 53.65 253.21 53.833C253.552 54.017 253.978 54.167 254.156 54.167C254.334 54.167 254.525 54.24 254.581 54.329C254.636 54.418 254.996 54.576 255.382 54.679C255.823 54.798 256.315 55.112 256.708 55.524L257.333 56.181V57.819V59.457L256.737 60.137C255.721 61.296 252.878 61.19 250.474 59.903C250.231 59.773 249.949 59.667 249.848 59.667C249.668 59.667 248.878 59.142 247 57.778C245.722 56.849 244.287 55.331 243.366 53.934C242.366 52.417 242.219 52.172 242.003 51.667C241.905 51.438 241.724 51.025 241.601 50.75C241.042 49.496 240.845 49.012 240.484 48L240.098 46.917L240.038 25.917C239.969 2.08199 239.933 3.10599 240.856 2.18399C241.608 1.43099 241.994 1.33399 243.827 1.43399C244.989 1.49699 245.112 1.54099 245.682 2.09799ZM37.333 14.614C36.392 14.683 34.425 15.128 33.703 15.435C33.402 15.562 33.076 15.667 32.98 15.667C32.81 15.667 30.1 16.975 29.417 17.387C29.029 17.62 28.188 18.173 27.85 18.415C26.876 19.115 24.727 21.491 23.761 22.936C23.34 23.567 22.92 24.175 22.828 24.287C22.737 24.399 22.588 24.662 22.498 24.871C22.408 25.079 22.264 25.363 22.179 25.5C22.093 25.637 21.862 26.125 21.666 26.583C21.469 27.042 21.201 27.616 21.07 27.859C20.94 28.102 20.833 28.462 20.833 28.659C20.833 28.856 20.702 29.257 20.542 29.55C20.247 30.089 19.973 56.789 20.247 58.282C20.782 61.196 25.351 61.571 27.049 58.841L27.417 58.25L27.509 45.167C27.606 31.32 27.612 31.215 28.397 29.75C28.544 29.475 28.665 29.186 28.666 29.108C28.666 29.029 28.892 28.632 29.167 28.224C29.442 27.817 29.667 27.446 29.667 27.399C29.667 26.718 32.561 24.028 33.875 23.489C34.127 23.385 34.333 23.239 34.333 23.164C34.333 23.088 34.576 22.973 34.873 22.908C35.169 22.843 35.563 22.694 35.748 22.578C36.937 21.827 41.755 21.823 43.417 22.572C45.729 23.613 46.636 24.185 47.767 25.315C48.644 26.192 49.923 28.034 50.326 29C50.422 29.229 50.582 29.558 50.682 29.73C51.381 30.937 51.394 31.187 51.492 44.917L51.585 58.083L51.957 58.75C53.227 61.029 56.087 61.483 57.922 59.698C59.02 58.63 59 58.889 59 45.703C59 33.988 59.088 31.686 59.576 30.583C59.698 30.308 59.955 29.738 60.149 29.315C60.342 28.893 60.5 28.468 60.5 28.371C60.5 28.274 60.558 28.169 60.628 28.139C60.699 28.108 61.052 27.634 61.413 27.085C62.529 25.39 64.02 24.099 65.92 23.183C66.376 22.963 66.938 22.69 67.167 22.577C67.396 22.463 67.996 22.321 68.5 22.261C69.004 22.201 69.766 22.074 70.193 21.979C71.736 21.638 75.314 22.459 76.967 23.534C77.361 23.79 77.755 24 77.843 24C78.137 24 80.258 26.239 80.922 27.25C81.851 28.664 82.555 30.163 82.88 31.417C82.987 31.832 83.09 36.985 83.151 45.083L83.25 58.083L83.631 58.856C84.904 61.44 88.437 61.442 90.066 58.86L90.504 58.167L90.449 44.542C90.393 30.424 90.328 29.099 89.657 28.425C89.571 28.338 89.5 28.159 89.5 28.027C89.5 27.802 88.978 26.562 88.647 26C88.566 25.863 88.422 25.57 88.327 25.349C88.233 25.128 87.933 24.618 87.661 24.216C87.389 23.813 87.167 23.447 87.167 23.402C87.167 23.29 86.46 22.294 86.233 22.085C86.132 21.993 85.832 21.618 85.567 21.252C83.672 18.648 79.317 15.853 76.083 15.166C75.717 15.088 75.192 14.936 74.917 14.827C73.496 14.266 66.777 14.688 65.278 15.432C65.019 15.561 64.695 15.667 64.56 15.667C63.811 15.667 61.304 17.13 59.039 18.888C57.27 20.261 56.078 21.461 55.554 22.398C55.422 22.634 55.314 22.57 54.825 21.969C50.455 16.602 44.471 14.085 37.333 14.614ZM121.083 14.65C119.591 14.833 117.986 15.172 117.369 15.434C117.068 15.562 116.702 15.667 116.554 15.667C116.316 15.667 115.174 16.137 114.5 16.512C114.362 16.589 113.8 16.887 113.25 17.174C110.966 18.368 109.801 19.203 108.147 20.833C106.667 22.291 104.833 24.485 104.833 24.796C104.833 24.893 104.776 24.997 104.705 25.028C104.401 25.16 102.5 28.751 102.5 29.193C102.5 29.325 102.425 29.509 102.332 29.601C102.136 29.798 101.735 31.135 101.414 32.667C101.289 33.262 101.109 34.05 101.014 34.417C100.707 35.604 100.773 72.409 101.083 72.667C101.221 72.781 101.333 72.975 101.333 73.097C101.333 73.22 101.502 73.481 101.708 73.678C103.616 75.498 105.899 75.355 107.517 73.312L108.083 72.597L108.132 64.299C108.188 54.873 108.059 55.521 109.638 56.716C111.321 57.992 112.399 58.647 114.333 59.574C114.837 59.815 115.4 60.098 115.583 60.202C115.767 60.306 116.179 60.446 116.5 60.513C116.821 60.579 117.308 60.713 117.583 60.809C119.601 61.517 124.269 61.885 126.583 61.519C128.766 61.175 130.083 60.894 130.447 60.697C130.648 60.589 130.933 60.5 131.082 60.5C131.357 60.5 132.714 59.953 133.167 59.66C133.304 59.571 133.529 59.455 133.667 59.404C133.804 59.352 134.029 59.241 134.167 59.157C134.304 59.073 134.642 58.889 134.917 58.748C137.343 57.501 140.043 55.15 141.899 52.667C142.413 51.979 142.891 51.342 142.961 51.25C143.802 50.15 145.665 46.19 145.668 45.497C145.668 45.361 145.771 45.055 145.895 44.816C146.02 44.578 146.176 44.015 146.242 43.566C146.309 43.117 146.469 42.34 146.598 41.84C146.876 40.764 146.912 35.831 146.65 34.667C146.557 34.254 146.403 33.467 146.306 32.917C146.21 32.367 146.027 31.714 145.899 31.467C145.771 31.219 145.667 30.84 145.667 30.623C145.667 30.407 145.557 30.085 145.422 29.907C145.287 29.729 145.175 29.479 145.172 29.352C145.167 29.132 144.631 27.873 144.313 27.333C144.232 27.196 144.09 26.907 143.997 26.691C143.85 26.349 142.823 24.718 142.46 24.25C142.389 24.158 142.014 23.671 141.628 23.167C140.74 22.008 138.269 19.555 137.406 18.976C136.22 18.179 135.263 17.601 134.417 17.17C133.958 16.937 133.471 16.672 133.333 16.582C132.786 16.226 130.028 15.315 128.333 14.932C126.938 14.616 122.697 14.451 121.083 14.65ZM174.75 14.65C173.258 14.833 171.653 15.172 171.036 15.434C170.735 15.562 170.368 15.667 170.221 15.667C169.982 15.667 168.84 16.137 168.167 16.512C168.029 16.589 167.467 16.883 166.917 17.167C165.784 17.75 165.597 17.862 164.425 18.648C162.638 19.848 161.453 20.976 159.677 23.167C159.491 23.396 159.245 23.693 159.13 23.828C158.853 24.149 158.167 25.163 158.167 25.249C158.167 25.286 157.953 25.639 157.692 26.033C157.43 26.427 157.055 27.106 156.858 27.542C156.661 27.977 156.35 28.66 156.167 29.06C155.983 29.46 155.833 29.901 155.833 30.041C155.833 30.181 155.721 30.51 155.584 30.773C155.447 31.035 155.335 31.421 155.334 31.63C155.334 31.84 155.228 32.264 155.098 32.573C154.969 32.883 154.814 33.649 154.754 34.276C154.694 34.904 154.569 36.012 154.477 36.739C154.152 39.296 154.955 44.258 156.15 47.083C156.624 48.203 157.917 50.667 158.031 50.667C158.105 50.667 158.167 50.742 158.167 50.835C158.167 51.02 159.259 52.651 159.561 52.917C159.665 53.008 160.125 53.533 160.583 54.083C161.922 55.687 164.147 57.563 165.5 58.227C165.637 58.294 166.05 58.528 166.417 58.747C167.052 59.126 168.337 59.766 169.417 60.242C173.548 62.062 181.452 62.062 185.583 60.242C186.663 59.766 187.948 59.126 188.583 58.747C188.95 58.528 189.362 58.294 189.5 58.227C190.205 57.881 192.624 56.069 193.25 55.417C195.996 52.561 198.051 49.346 199.163 46.167C200.444 42.508 200.889 38.741 200.414 35.591C199.845 31.813 199.33 30.039 198.02 27.333C197.663 26.596 196.095 24.088 195.832 23.833C195.784 23.787 195.414 23.337 195.01 22.833C193.418 20.851 191.696 19.287 189.944 18.234C188.83 17.564 186.968 16.528 186.667 16.41C186.529 16.356 186.185 16.199 185.903 16.061C185.62 15.924 185.133 15.747 184.819 15.67C184.506 15.593 184.025 15.453 183.75 15.36C181.834 14.711 177.215 14.346 174.75 14.65ZM41.833 14.995C42.154 15.083 42.942 15.226 43.583 15.313C46.831 15.754 50.212 17.685 53.453 20.95C55.592 23.105 55.471 23.05 56.093 22.153C56.753 21.201 58.973 19.169 60.391 18.22C61.047 17.781 61.621 17.382 61.667 17.333C61.712 17.283 61.938 17.152 62.167 17.039C62.396 16.927 62.696 16.771 62.833 16.692C63.928 16.064 65.686 15.499 67.083 15.326C67.725 15.247 68.562 15.096 68.944 14.99C69.821 14.747 73.284 14.88 75 15.222C80.362 16.291 85.079 19.894 87.8 25C89.171 27.573 89.576 28.687 90.074 31.254C90.489 33.392 90.461 57.01 90.042 58.201C89.097 60.888 85.472 61.288 83.97 58.872L83.583 58.25L83.49 45.167C83.394 31.615 83.34 30.606 82.676 29.943C82.579 29.846 82.5 29.664 82.5 29.537C82.5 29.411 82.182 28.77 81.794 28.112C76.405 18.979 64.579 19.548 59.89 29.167C58.744 31.517 58.78 31.037 58.677 45.417L58.583 58.417L58.167 59C57.938 59.321 57.692 59.609 57.622 59.64C57.552 59.671 57.378 59.813 57.235 59.955C56.366 60.824 53.839 60.54 52.831 59.459C51.801 58.356 51.835 58.835 51.821 45.187C51.807 31.042 51.836 31.43 50.593 28.833C46.853 21.026 37.177 19.227 31.042 25.199C30.56 25.667 30.167 26.109 30.167 26.18C30.167 26.251 30.071 26.409 29.955 26.53C29.641 26.856 28.5 28.618 28.499 28.778C28.498 28.854 28.381 29.142 28.237 29.417C27.209 31.386 27.258 30.668 27.167 45.083L27.083 58.25L26.636 58.938C25.304 60.985 22.28 60.974 20.873 58.917L20.417 58.25L20.371 45.468C20.327 33.081 20.378 31.384 20.847 29.667C21.177 28.46 21.853 26.745 22.357 25.833C22.433 25.696 22.611 25.358 22.752 25.083C23.094 24.417 23.846 23.215 24.212 22.75C24.284 22.658 24.685 22.133 25.103 21.583C26.315 19.99 27.773 18.726 29.75 17.552C30.637 17.026 32.918 15.945 33.388 15.828C33.679 15.755 34.142 15.617 34.417 15.52C36.037 14.949 40.512 14.633 41.833 14.995ZM127.75 15.223C128.667 15.368 129.717 15.598 130.083 15.736C130.45 15.873 130.875 15.989 131.028 15.993C131.181 15.997 131.519 16.109 131.778 16.243C132.038 16.377 132.683 16.696 133.213 16.951C134.826 17.731 135.034 17.848 136.5 18.81C139.339 20.673 142.39 24.189 143.968 27.417C144.192 27.875 144.479 28.449 144.604 28.692C144.73 28.936 144.836 29.236 144.839 29.359C144.842 29.482 144.99 29.883 145.167 30.25C145.344 30.617 145.491 31.09 145.494 31.303C145.497 31.515 145.589 31.852 145.697 32.053C146.332 33.227 146.646 39.392 146.204 42C145.113 48.437 141.141 54.544 135.947 57.77C134.219 58.844 131.052 60.333 130.498 60.333C130.304 60.333 129.981 60.424 129.781 60.534C129.452 60.715 128.501 60.87 124.917 61.326C124.235 61.412 123.3 61.412 122.667 61.326C122.071 61.244 120.871 61.089 120 60.982C119.129 60.875 118.214 60.685 117.967 60.56C117.719 60.435 117.359 60.333 117.166 60.333C116.681 60.333 113.382 58.84 112.333 58.146C112.104 57.995 111.467 57.584 110.917 57.233C110.367 56.882 109.879 56.552 109.833 56.5C109.26 55.849 108.122 55.135 107.99 55.344C107.904 55.479 107.837 59.228 107.836 63.936C107.833 72.034 107.823 72.301 107.5 72.712C107.317 72.945 107.167 73.188 107.167 73.252C107.167 73.646 105.162 74.666 104.389 74.667C103.389 74.667 102.206 73.882 101.498 72.748L101.083 72.083L101.036 54.833C101.005 43.313 101.048 37.14 101.167 36.25C101.51 33.673 101.772 32.246 101.968 31.886C102.077 31.686 102.167 31.387 102.167 31.223C102.167 30.869 103.013 28.632 103.511 27.667C104.102 26.523 104.706 25.441 104.844 25.279C104.935 25.171 105.307 24.671 105.671 24.167C106.804 22.594 108.428 20.816 109.508 19.963C110.615 19.091 110.97 18.833 111.07 18.833C111.125 18.833 111.526 18.59 111.96 18.292C112.65 17.818 114.335 16.941 115.917 16.232C116.192 16.109 116.717 15.935 117.083 15.845C117.45 15.755 118.05 15.606 118.417 15.513C121.118 14.827 124.564 14.72 127.75 15.223ZM179.917 15.087C180.467 15.219 181.27 15.329 181.702 15.331C182.134 15.332 182.868 15.483 183.333 15.667C183.798 15.85 184.32 16 184.493 16C184.788 16 185.026 16.1 186.533 16.857C186.872 17.027 187.26 17.167 187.394 17.167C187.529 17.167 187.664 17.226 187.694 17.298C187.725 17.37 188.125 17.644 188.583 17.906C192.366 20.074 195.606 23.432 197.399 27.045C197.662 27.574 197.942 28.047 198.022 28.097C198.101 28.146 198.167 28.332 198.167 28.51C198.167 28.689 198.317 29.114 198.5 29.456C198.683 29.799 198.833 30.216 198.833 30.383C198.833 30.551 198.918 30.847 199.022 31.041C199.215 31.402 199.546 32.712 199.853 34.333C200.094 35.605 199.982 42.536 199.716 42.857C199.606 42.99 199.443 43.508 199.355 44.008C199.193 44.926 198.854 45.98 198.409 46.942C198.276 47.231 198.167 47.578 198.167 47.713C198.167 47.848 198.054 48.053 197.917 48.167C197.779 48.281 197.667 48.505 197.667 48.665C197.667 48.824 197.535 49.135 197.375 49.354C196.957 49.927 196.688 50.367 196.517 50.757C196.435 50.944 196.248 51.197 196.101 51.319C195.954 51.441 195.833 51.613 195.833 51.702C195.833 51.791 195.654 52.063 195.434 52.307C195.214 52.55 194.475 53.387 193.792 54.167C193.108 54.946 192.34 55.733 192.084 55.917C191.828 56.1 191.5 56.381 191.356 56.542C191.211 56.702 191.005 56.833 190.897 56.833C190.79 56.833 190.659 56.946 190.606 57.083C190.554 57.221 190.401 57.333 190.267 57.333C190.133 57.333 189.924 57.433 189.802 57.555C189.554 57.804 188.814 58.224 188.125 58.51C187.873 58.614 187.667 58.761 187.667 58.836C187.667 58.912 187.447 59.022 187.178 59.081C186.91 59.14 186.6 59.296 186.491 59.427C186.382 59.559 186.131 59.667 185.933 59.667C185.736 59.667 185.426 59.77 185.245 59.895C185.065 60.021 184.654 60.175 184.333 60.238C184.012 60.3 183.487 60.452 183.167 60.575C181.123 61.361 174.313 61.402 172.083 60.641C171.808 60.547 171.283 60.4 170.917 60.313C170.55 60.226 170.014 60.045 169.725 59.911C169.436 59.777 169.089 59.667 168.954 59.667C168.818 59.667 168.614 59.554 168.5 59.417C168.386 59.279 168.232 59.167 168.157 59.167C167.945 59.167 167.298 58.86 166.75 58.5C166.475 58.319 166.064 58.091 165.837 57.992C165.609 57.893 165.384 57.757 165.337 57.69C165.289 57.622 164.889 57.359 164.448 57.104C163.652 56.644 160.992 54.118 160.126 53C159.05 51.61 158.526 50.864 158.076 50.083C157.812 49.625 157.537 49.225 157.465 49.194C157.392 49.164 157.333 49.032 157.333 48.902C157.333 48.772 157.183 48.386 157 48.044C156.817 47.701 156.664 47.308 156.661 47.169C156.658 47.03 156.546 46.771 156.411 46.593C156.277 46.415 156.166 46.115 156.166 45.926C156.165 45.738 156.052 45.367 155.914 45.103C155.776 44.839 155.62 44.314 155.567 43.936C155.514 43.559 155.353 42.877 155.209 42.42C154.83 41.217 154.85 34.698 155.235 33.797C155.381 33.456 155.5 32.969 155.5 32.714C155.5 32.24 156.052 30.416 156.422 29.667C156.536 29.438 156.68 29.006 156.744 28.708C156.808 28.41 156.923 28.167 157 28.167C157.077 28.167 157.189 27.943 157.25 27.669C157.31 27.395 157.429 27.127 157.515 27.074C157.601 27.021 157.782 26.739 157.916 26.447C158.241 25.741 158.548 25.268 159.247 24.393C159.478 24.104 159.667 23.827 159.667 23.775C159.667 23.518 162.537 20.544 163.471 19.833C163.772 19.604 164.176 19.285 164.368 19.125C164.56 18.965 164.776 18.833 164.847 18.833C164.918 18.833 165.078 18.74 165.202 18.625C165.502 18.349 166.125 18.004 167.833 17.168C168.612 16.786 169.462 16.367 169.722 16.237C169.981 16.107 170.302 16 170.434 16C170.567 16 171.102 15.85 171.623 15.667C172.145 15.483 172.912 15.326 173.328 15.317C173.743 15.308 174.496 15.206 175 15.09C176.267 14.799 178.717 14.797 179.917 15.087ZM227.417 15.032C227.05 15.117 226.525 15.263 226.25 15.355C225.975 15.447 225.412 15.621 225 15.742C223.994 16.038 223.138 16.346 222.833 16.523C222.696 16.603 222.471 16.712 222.333 16.765C221.56 17.061 221.228 17.261 219.386 18.537C216.983 20.203 213.833 23.4 213.833 24.174C213.833 24.262 213.756 24.333 213.663 24.333C213.569 24.333 213.415 24.502 213.321 24.708C213.227 24.915 212.973 25.383 212.757 25.75C212.349 26.441 211.303 28.515 210.687 29.852C210.493 30.274 210.333 30.748 210.333 30.904C210.333 31.061 210.246 31.352 210.139 31.551C209.898 32.002 209.539 33.804 209.321 35.655C208.952 38.781 209.206 57.995 209.625 58.75C210.885 61.019 213.791 61.487 215.59 59.711C216.77 58.546 216.725 59.043 216.826 46.083C216.909 35.39 216.941 34.372 217.208 33.883C217.369 33.59 217.5 33.223 217.5 33.068C217.5 32.81 217.998 31.602 218.353 31C218.434 30.862 218.578 30.57 218.673 30.349C218.767 30.128 219.067 29.618 219.339 29.216C219.611 28.813 219.833 28.419 219.833 28.34C219.833 28.07 223.325 24.667 223.602 24.667C223.64 24.667 224.044 24.404 224.5 24.083C224.956 23.762 225.387 23.497 225.457 23.494C225.526 23.491 225.883 23.344 226.25 23.167C226.617 22.99 227.067 22.839 227.25 22.833C227.433 22.827 227.771 22.714 228 22.583C228.229 22.452 228.59 22.342 228.801 22.339C229.241 22.332 230.537 21.775 231.198 21.308C231.445 21.134 231.838 20.586 232.073 20.09C233.518 17.036 230.917 14.212 227.417 15.032ZM230.379 15.667C230.612 15.85 230.879 16 230.973 16C231.067 16 231.192 16.15 231.25 16.333C231.308 16.517 231.42 16.667 231.499 16.667C231.818 16.667 232.046 18.412 231.849 19.335C231.638 20.317 230.621 21.5 229.987 21.5C229.804 21.5 229.489 21.604 229.286 21.73C229.083 21.857 228.608 22.006 228.23 22.062C227.853 22.118 227.328 22.276 227.064 22.414C226.8 22.552 226.486 22.665 226.368 22.666C226.063 22.667 223.954 23.812 223.732 24.096C223.63 24.227 223.488 24.333 223.415 24.333C222.969 24.333 220.264 26.939 219.522 28.083C218.682 29.38 217.334 31.927 217.332 32.221C217.332 32.329 217.216 32.637 217.076 32.907C216.935 33.177 216.754 33.814 216.673 34.324C216.592 34.833 216.447 35.55 216.35 35.917C216.236 36.35 216.173 40.383 216.171 47.447L216.167 58.31L215.796 58.868C214.939 60.159 211.846 60.911 211.313 59.958C211.224 59.798 211.06 59.666 210.95 59.666C210.681 59.664 210.099 58.738 209.85 57.917C209.283 56.043 209.779 33.448 210.414 32.23C210.552 31.966 210.665 31.558 210.666 31.324C210.666 31.089 210.777 30.751 210.911 30.574C211.046 30.396 211.158 30.115 211.161 29.95C211.164 29.785 211.313 29.372 211.492 29.033C211.671 28.694 211.858 28.304 211.907 28.167C211.957 28.029 212.073 27.785 212.166 27.625C212.258 27.465 212.409 27.202 212.501 27.042C212.594 26.881 212.761 26.563 212.872 26.333C212.984 26.104 213.321 25.561 213.621 25.127C213.921 24.692 214.167 24.261 214.167 24.168C214.167 24.076 214.232 24 214.311 24C214.391 24 214.664 23.681 214.918 23.292C215.716 22.07 219.278 18.833 219.824 18.833C219.921 18.833 220 18.767 220 18.687C220 18.606 220.225 18.447 220.5 18.333C220.775 18.219 221 18.066 221 17.992C221 17.918 221.431 17.661 221.958 17.421C222.485 17.181 223.116 16.876 223.359 16.742C223.602 16.609 223.944 16.5 224.119 16.5C224.293 16.5 224.582 16.39 224.76 16.255C224.938 16.121 225.297 16.008 225.558 16.005C225.819 16.002 226.269 15.894 226.558 15.765C227.413 15.382 227.53 15.36 228.769 15.346C229.716 15.336 230.04 15.401 230.379 15.667ZM122.5 21.606C121.425 21.74 119.423 22.186 118.75 22.443C117.694 22.845 115.333 24.062 115.333 24.204C115.333 24.275 115.253 24.333 115.156 24.333C114.357 24.333 110 29.176 110 30.063C110 30.133 109.888 30.303 109.75 30.44C109.612 30.578 109.5 30.826 109.5 30.991C109.5 31.157 109.388 31.386 109.25 31.5C109.112 31.614 108.997 31.83 108.994 31.979C108.991 32.128 108.844 32.55 108.667 32.917C108.49 33.283 108.341 33.733 108.337 33.917C108.333 34.1 108.218 34.618 108.082 35.068C107.193 37.996 108.083 42.882 110.147 46.417C112.079 49.725 113.664 51.22 117.25 53.116C121.065 55.133 127.061 55.024 130.881 52.868C131.402 52.574 131.871 52.333 131.924 52.333C132.02 52.333 133.169 51.508 134.061 50.797C134.785 50.22 137.5 46.751 137.5 46.403C137.5 46.348 137.65 46.112 137.833 45.879C138.017 45.646 138.167 45.324 138.167 45.165C138.167 45.005 138.279 44.781 138.417 44.667C138.554 44.553 138.667 44.337 138.668 44.188C138.668 44.039 138.778 43.707 138.911 43.451C139.045 43.195 139.203 42.708 139.264 42.368C139.324 42.028 139.476 41.34 139.603 40.84C139.874 39.771 139.903 36.546 139.651 35.583C139.555 35.217 139.414 34.578 139.338 34.165C139.262 33.752 139.071 33.114 138.915 32.748C138.414 31.579 137.431 29.595 137.169 29.228C137.03 29.032 136.804 28.703 136.667 28.496C135.436 26.647 133.135 24.333 132.525 24.333C132.435 24.333 132.336 24.269 132.306 24.19C132.233 24.002 130.16 22.891 129.276 22.566C127.423 21.886 124.075 21.411 122.5 21.606ZM175.333 21.68C173.198 22.08 171 22.76 171 23.02C171 23.101 170.86 23.167 170.689 23.167C170.518 23.167 170.188 23.317 169.955 23.5C169.721 23.683 169.486 23.833 169.43 23.833C168.403 23.833 164.741 27.843 163.419 30.417C163.277 30.692 163.099 31.029 163.022 31.167C162.684 31.772 162.337 32.622 162.24 33.083C162.183 33.358 162.017 33.846 161.873 34.167C161.148 35.777 161.599 42.084 162.576 44C162.692 44.229 162.837 44.623 162.897 44.875C162.957 45.127 163.08 45.333 163.17 45.333C163.26 45.333 163.333 45.43 163.333 45.549C163.333 46.384 167.841 51.833 168.532 51.833C168.638 51.833 168.845 51.943 168.993 52.077C169.392 52.438 171.836 53.667 172.156 53.667C172.309 53.667 172.505 53.737 172.592 53.823C173.879 55.093 182.625 54.609 184.045 53.188C184.149 53.085 184.314 53 184.412 53C184.51 53 184.99 52.737 185.477 52.417C185.964 52.096 186.418 51.833 186.486 51.833C187.292 51.833 191.157 47.047 192.003 45C192.098 44.771 192.277 44.358 192.401 44.083C193.287 42.114 193.641 39.12 193.345 36.091C193.222 34.834 193.035 33.785 192.9 33.592C192.772 33.409 192.667 33.113 192.667 32.933C192.667 32.623 191.466 29.985 191.149 29.6C191.066 29.499 190.682 28.932 190.295 28.34C189.591 27.261 187.595 25.128 186.856 24.664C186.639 24.528 186.29 24.285 186.079 24.125C185.869 23.965 185.646 23.833 185.583 23.833C185.521 23.833 185.279 23.683 185.045 23.5C184.812 23.317 184.482 23.167 184.311 23.167C184.14 23.167 184 23.101 184 23.02C184 22.744 181.697 22.05 179.5 21.663C178.42 21.473 176.393 21.481 175.333 21.68ZM126.083 22.167C127 22.279 127.953 22.475 128.2 22.602C128.448 22.729 128.771 22.833 128.919 22.833C129.252 22.833 131.228 23.798 132.064 24.369C133.997 25.689 135.589 27.345 136.918 29.417C137.458 30.259 138.5 32.395 138.501 32.664C138.502 32.803 138.61 33.125 138.743 33.379C139.547 34.921 139.546 41.295 138.741 42.851C138.608 43.107 138.5 43.416 138.5 43.537C138.5 44.175 136.926 46.858 135.406 48.811C133.968 50.659 130.205 53.33 129.035 53.334C128.878 53.335 128.529 53.451 128.259 53.591C127.792 53.835 125.08 54.22 123.833 54.22C122.586 54.22 119.874 53.835 119.408 53.591C119.138 53.451 118.787 53.335 118.629 53.334C118.241 53.333 115.212 51.715 114.738 51.256C114.64 51.161 114.302 50.907 113.988 50.691C113.074 50.064 110.401 46.505 109.839 45.167C109.743 44.938 109.552 44.551 109.416 44.308C109.279 44.064 109.166 43.764 109.166 43.641C109.165 43.518 109.061 43.219 108.935 42.977C108.031 41.244 108.024 34.937 108.924 33.212C109.056 32.958 109.165 32.674 109.166 32.58C109.167 32.378 110.293 30.127 110.749 29.417C112.078 27.345 113.67 25.689 115.603 24.369C116.483 23.768 118.42 22.833 118.786 22.833C118.955 22.833 119.244 22.727 119.429 22.598C119.614 22.468 120.399 22.308 121.174 22.241C121.949 22.175 122.733 22.057 122.917 21.98C123.267 21.833 123.414 21.842 126.083 22.167ZM179.833 22.178C180.704 22.284 181.619 22.475 181.867 22.602C182.114 22.729 182.438 22.833 182.585 22.833C182.879 22.833 184.289 23.496 185.083 24.008C185.358 24.185 185.765 24.423 185.986 24.538C187.695 25.419 190.111 28.291 191.423 31C192.174 32.552 192.318 32.899 192.425 33.417C192.482 33.692 192.635 34.199 192.764 34.545C193.158 35.594 193.091 40.67 192.667 42C192.483 42.574 192.333 43.107 192.333 43.185C192.333 43.333 191.132 45.839 190.784 46.417C189.741 48.149 187.826 50.388 186.649 51.254C185.774 51.898 183.06 53.333 182.715 53.334C182.551 53.335 182.196 53.451 181.926 53.591C181.459 53.835 178.747 54.22 177.5 54.22C176.253 54.22 173.541 53.835 173.074 53.591C172.804 53.451 172.478 53.335 172.35 53.334C172.096 53.333 170.718 52.665 169.917 52.155C169.642 51.98 169.304 51.784 169.167 51.718C166.741 50.566 163.275 45.718 162.338 42.167C161.365 38.482 161.799 34.509 163.554 31.032C164.254 29.647 164.391 29.411 164.902 28.727C165.185 28.348 165.529 27.871 165.667 27.666C166.185 26.894 167.786 25.374 168.75 24.741C170.424 23.64 171.974 22.833 172.415 22.833C172.562 22.833 172.886 22.729 173.133 22.601C173.381 22.473 174.178 22.313 174.905 22.245C175.632 22.177 176.419 22.06 176.655 21.985C176.89 21.91 177.346 21.879 177.667 21.917C177.987 21.955 178.963 22.072 179.833 22.178Z" fill="#7F32EC"/>
</svg>
